<?xml version="1.0" encoding="utf-8"?>
<!-- Generator: Adobe Illustrator 19.1.0, SVG Export Plug-In . SVG Version: 6.00 Build 0)  -->
<svg version="1.1" id="Layer_2" xmlns="http://www.w3.org/2000/svg" xmlns:xlink="http://www.w3.org/1999/xlink" x="0px" y="0px"
	 viewBox="-5 -5 95 95" style="enable-background:new 0 0 100 100;" xml:space="preserve" height="12px" width="12px">
<g>
	<rect x="7.6" y="14.7" width="85" height="70.5"/>
	<g>
		<path style="fill:#FFFFFF;" d="M19,31h14.6c2.9,0,5,0.1,6.5,0.4c1.4,0.3,2.7,0.8,3.8,1.6c1.1,0.8,2.1,1.9,2.8,3.2
			c0.7,1.3,1.1,2.8,1.1,4.4c0,1.8-0.5,3.4-1.4,4.9c-0.9,1.5-2.2,2.6-3.7,3.3c2.2,0.7,3.9,1.8,5.1,3.4c1.2,1.6,1.8,3.5,1.8,5.7
			c0,1.7-0.4,3.4-1.2,5c-0.8,1.6-1.8,2.9-3.2,3.9c-1.3,1-3,1.6-4.9,1.8c-1.2,0.1-4.2,0.2-8.9,0.3H19V31z M25.5,37.3l-0.1,9.3l5.7,0
			c1.1,0,2.2,0,3.3,0c1.2,0,2.3,0,3.5-0.5c1-0.4,2-1.2,2.5-2.2c0.4-0.7,0.6-1.5,0.6-2.3c0-1-0.5-1.9-1.1-2.6c-0.8-0.9-1.9-1.4-3-1.5
			c-0.7-0.1-2.8-0.1-6.3-0.1L25.5,37.3z M25.3,52.5l0.1,9.9l7.6,0c1.7,0,3.4,0,5.2,0c1.8-0.3,2.5-0.5,3.6-1.6
			c0.5-0.5,1.3-1.6,1.4-3.1c0-1.2-0.3-1.7-0.6-2.4c-0.3-0.5-0.6-0.9-1-1.3c-1-1-2.7-1.5-4-1.5c-1.7-0.1-3.5,0-5.2,0L25.3,52.5z"/>
		<path style="fill:#FFFFFF;" d="M51.8,68.4V31h6.5v13.7c2.2-2.6,4.6-5,9.7-5c3.2,0,6,1.1,8.3,3.4c2.6,2.6,4.4,6.8,4.2,11.8
			c-0.3,5.9-1.5,7.5-3.9,10.3c-2.2,2.5-5.9,3.7-8.9,3.7c-1.9,0-3.6-0.2-5.1-1c-1.5-0.8-3.2-2.3-4.3-3.8l0,4.3H51.8z M58.3,54.4
			c0,2.8,1.1,4.8,1.9,6.1c1.6,1.6,2.3,2.1,4.9,2.6c1.5,0.3,4.2-0.3,5.6-1.5c1.6-1.3,2.9-3.3,3.2-6.3c0.4-4.6-1.3-6.9-2.6-8.1
			c-1.8-1.5-4.1-1.9-5.8-1.8c-2.1,0.1-4.4,1.6-5.5,2.9C58.9,49.8,58.3,51.7,58.3,54.4z"/>
	</g>
</g>
</svg>
