<?xml version="1.0" encoding="utf-8"?>
<!-- Svg Vector Icons : http://www.onlinewebfonts.com/icon -->
<!DOCTYPE svg PUBLIC "-//W3C//DTD SVG 1.1//EN" "http://www.w3.org/Graphics/SVG/1.1/DTD/svg11.dtd">
<svg version="1.1" xmlns="http://www.w3.org/2000/svg" xmlns:xlink="http://www.w3.org/1999/xlink" x="0px" y="0px" viewBox="0 0 1000 1000" enable-background="new 0 0 1000 1000" xml:space="preserve" height="11px" width="11px">
<metadata> Svg Vector Icons : http://www.onlinewebfonts.com/icon </metadata>
<g><g><path d="M888.4,229.2c-21.3-29-50.9-62.9-83.4-95.4c-32.5-32.5-66.4-62.2-95.4-83.4c-49.4-36.2-73.3-40.4-87-40.4H147.8c-42.2,0-76.6,34.3-76.6,76.6v826.9c0,42.2,34.3,76.6,76.6,76.6h704.4c42.2,0,76.6-34.3,76.6-76.6V316.3C928.8,302.5,924.6,278.6,888.4,229.2z M761.6,177.1c29.4,29.4,52.4,55.9,69.5,77.9H683.8V107.7C705.7,124.7,732.3,147.7,761.6,177.1L761.6,177.1z M867.5,913.4c0,8.3-7,15.3-15.3,15.3H147.8c-8.3,0-15.3-7-15.3-15.3V86.6c0-8.3,7-15.3,15.3-15.3c0,0,474.6,0,474.7,0v214.4c0,16.9,13.7,30.6,30.6,30.6h214.4V913.4z"/></g></g>
</svg>
