<?xml version="1.0" encoding="iso-8859-1"?>
<!-- Generator: Adobe Illustrator 18.1.1, SVG Export Plug-In . SVG Version: 6.00 Build 0)  -->
<svg version="1.1" id="Capa_1" xmlns="http://www.w3.org/2000/svg" xmlns:xlink="http://www.w3.org/1999/xlink" x="0px" y="0px"
	 viewBox="0 0 612 612" style="enable-background:new 0 0 612 612;" xml:space="preserve" width="11px" height="11px">
<g>
	<path d="M467.373,159.781c1.641,9.371,9.815,16.188,19.328,16.188h25.466c10.844,0,19.634-8.791,19.634-19.635v-136.7
		C531.802,8.791,523.011,0,512.167,0H99.834C88.99,0,80.199,8.791,80.199,19.634v49.45c0,3.7,1.045,7.324,3.016,10.456
		l74.956,119.141l69.968,111.211L158.17,421.104L83.214,540.245c-1.97,3.132-3.016,6.756-3.016,10.456v41.664
		c0,10.844,8.791,19.635,19.635,19.635h412.333c10.844,0,19.634-8.791,19.634-19.635v-192.76c0-10.844-8.791-19.635-19.634-19.635
		h-25.466c-9.513,0-17.687,6.817-19.328,16.188c-14.891,85.034-77.281,85.034-77.281,85.034h-118.46l118.063-161.347
		c4.451-6.083,5.027-14.179,1.481-20.831L271.632,74.748h118.46C390.092,74.748,452.482,74.748,467.373,159.781z"/>
</g>
<g>
</g>
<g>
</g>
<g>
</g>
<g>
</g>
<g>
</g>
<g>
</g>
<g>
</g>
<g>
</g>
<g>
</g>
<g>
</g>
<g>
</g>
<g>
</g>
<g>
</g>
<g>
</g>
<g>
</g>
</svg>
