<?xml version="1.0" standalone="no"?>
<!DOCTYPE svg PUBLIC "-//W3C//DTD SVG 20010904//EN"
 "http://www.w3.org/TR/2001/REC-SVG-20010904/DTD/svg10.dtd">
<svg version="1.0" xmlns="http://www.w3.org/2000/svg"
 width="11px" height="11px" viewBox="0 0 471.000000 470.000000"
 preserveAspectRatio="xMidYMid meet">
<g transform="translate(0.000000,470.000000) scale(0.100000,-0.100000)"
fill="#000000" stroke="none">
<path d="M4535 4416 c-25 -11 -176 -119 -211 -151 -6 -5 -36 -30 -65 -55 -29
-25 -84 -73 -121 -107 -139 -127 -293 -204 -453 -228 -132 -19 -456 -37 -760
-42 -335 -5 -458 -2 -1205 32 -370 16 -893 19 -990 5 -88 -13 -115 -28 -192
-108 -102 -106 -200 -268 -327 -543 -36 -77 -42 -73 112 -60 117 11 255 0 316
-25 44 -17 45 -20 123 -183 44 -91 90 -188 103 -216 199 -425 630 -1289 675
-1350 4 -5 34 -59 66 -120 94 -178 435 -778 482 -847 40 -61 83 -49 207 56
217 185 470 500 491 611 16 92 82 338 123 463 217 658 542 1286 1020 1967 130
186 403 538 551 710 127 147 157 205 108 205 -13 -1 -36 -7 -53 -14z m-1320
-1177 c77 -5 144 -14 148 -18 5 -5 -23 -55 -61 -112 -116 -175 -249 -423 -516
-960 -234 -470 -310 -609 -335 -609 -5 0 -17 8 -27 17 -24 24 -117 151 -138
188 -9 17 -29 49 -44 72 -230 357 -550 978 -663 1288 -16 44 -27 85 -25 92 7
16 73 23 401 37 362 17 1074 19 1260 5z"/>
<path d="M1705 3091 c-21 -68 144 -396 483 -961 226 -377 279 -441 312 -381
28 54 17 78 -277 601 -142 252 -236 423 -377 680 l-41 75 -47 3 c-39 3 -47 0
-53 -17z"/>
</g>
</svg>
