<?xml version="1.0" encoding="iso-8859-1"?>
<!-- Generator: Adobe Illustrator 16.0.0, SVG Export Plug-In . SVG Version: 6.00 Build 0)  -->
<!DOCTYPE svg PUBLIC "-//W3C//DTD SVG 1.1//EN" "http://www.w3.org/Graphics/SVG/1.1/DTD/svg11.dtd">
<svg version="1.1" id="Capa_1" xmlns="http://www.w3.org/2000/svg" xmlns:xlink="http://www.w3.org/1999/xlink" x="0px" y="0px"
	 width="11px" height="11px" viewBox="0 0 987.331 987.332" style="enable-background:new 0 0 987.331 987.332;"
	 xml:space="preserve">
<g>
	<path d="M120,955.166h683.1c66.2,0,120-53.801,120-120v-467.1l-120,120v347.1H120v-683h547.3l96.3-96.3
		c9.101-9.1,19.101-17,29.801-23.7H120c-66.2,0-120,53.8-120,120v683.1C0,901.365,53.8,955.166,120,955.166z"/>
	<path d="M958.2,99.465c-19.4-20.1-44.8-30.8-70.5-32.3c-2.101-0.1-4.101-0.2-6.2-0.2c-27.3,0-54.6,10.4-75.5,31.3l-334,334
		c-11.3-12.101-81.1-82.4-81.1-82.4c-20.801-20.8-48.2-31.3-75.5-31.3c-27.3,0-54.601,10.4-75.5,31.3c-41.7,41.7-41.7,109.3,0,151
		l81.8,81.801l75.5,75.5c20,20,47.2,31.301,75.5,31.301s55.5-11.201,75.5-31.301l406.2-406.2
		C996,210.266,999.2,141.766,958.2,99.465z"/>
</g>
<g>
</g>
<g>
</g>
<g>
</g>
<g>
</g>
<g>
</g>
<g>
</g>
<g>
</g>
<g>
</g>
<g>
</g>
<g>
</g>
<g>
</g>
<g>
</g>
<g>
</g>
<g>
</g>
<g>
</g>
</svg>
