<?xml version="1.0" standalone="no"?>
<!DOCTYPE svg PUBLIC "-//W3C//DTD SVG 20010904//EN"
 "http://www.w3.org/TR/2001/REC-SVG-20010904/DTD/svg10.dtd">
<svg version="1.0" xmlns="http://www.w3.org/2000/svg"
 width="11px" height="11px" viewBox="0 0 688.000000 690.000000"
 preserveAspectRatio="xMidYMid meet">
<metadata>
Created by potrace 1.13, written by Peter Selinger 2001-2015
</metadata>
<g transform="translate(0.000000,690.000000) scale(0.100000,-0.100000)"
fill="#000000" stroke="none">
<path d="M772 6778 c-30 -5 -51 -12 -49 -14 3 -3 33 0 68 6 72 12 5091 9 5144
-3 l30 -7 -30 12 c-38 16 -5078 22 -5163 6z"/>
<path d="M821 6759 c-95 -11 -249 -64 -347 -120 -96 -54 -247 -196 -309 -290
-58 -86 -108 -194 -137 -295 l-23 -79 0 -2550 0 -2550 23 -80 c50 -172 134
-315 258 -438 149 -148 338 -241 545 -267 116 -14 4902 -14 5018 0 113 15 248
60 351 117 63 36 113 75 191 153 115 114 176 204 228 340 66 170 62 -24 59
2755 l-3 2520 -23 80 c-47 161 -121 290 -232 409 -159 169 -354 269 -575 295
-110 13 -4910 13 -5024 0z m1692 -1649 c179 -38 326 -109 409 -198 73 -78 83
-103 83 -212 0 -115 -24 -174 -88 -221 -101 -73 -213 -75 -462 -8 -146 39
-171 43 -280 44 -105 0 -126 -3 -172 -24 -29 -13 -72 -44 -97 -71 -92 -98 -86
-211 15 -309 60 -57 192 -119 399 -186 329 -107 506 -201 655 -350 49 -50 105
-116 124 -147 114 -194 138 -471 65 -726 -84 -290 -317 -520 -635 -626 -165
-55 -266 -70 -484 -70 -279 1 -465 38 -660 134 -204 100 -295 206 -295 342 0
196 184 331 395 288 33 -6 130 -32 215 -57 215 -63 318 -83 432 -83 117 0 184
21 250 79 93 83 129 205 94 326 -14 46 -29 69 -74 114 -76 76 -160 115 -452
211 -360 119 -536 211 -655 343 -157 173 -213 476 -138 752 96 358 423 616
855 674 116 16 386 5 501 -19z m1594 -806 c61 -29 100 -75 146 -171 18 -38
121 -304 228 -591 107 -287 196 -522 199 -522 3 0 97 240 209 533 113 292 220
562 238 600 68 137 137 183 273 181 97 -1 163 -29 224 -94 59 -63 81 -134 73
-240 -7 -100 -18 -127 -285 -760 -126 -300 -328 -777 -447 -1060 -120 -283
-248 -589 -286 -679 -133 -317 -185 -369 -361 -359 -128 7 -206 55 -259 158
-30 60 -37 181 -15 267 13 50 175 414 289 652 24 48 25 56 13 80 -7 14 -162
373 -345 797 -279 652 -332 782 -341 844 -28 194 65 346 237 390 58 14 151 3
210 -26z"/>
<path d="M6675 6045 c2 -16 9 -59 15 -95 6 -43 10 -916 10 -2525 0 -2105 -2
-2473 -15 -2550 -16 -100 -13 -121 6 -48 11 39 14 533 16 2543 4 2461 2 2614
-27 2683 -9 19 -9 18 -5 -8z"/>
<path d="M2078 63 c694 -2 1830 -2 2525 0 694 1 126 2 -1263 2 -1389 0 -1957
-1 -1262 -2z"/>
</g>
</svg>
