<?xml version="1.0" encoding="iso-8859-1"?>
<!-- Generator: Adobe Illustrator 18.1.1, SVG Export Plug-In . SVG Version: 6.00 Build 0)  -->
<svg version="1.1" id="Capa_1" xmlns="http://www.w3.org/2000/svg" xmlns:xlink="http://www.w3.org/1999/xlink" x="0px" y="0px"
	 width="11px" height="11px" viewBox="0 0 29.535 29.535" style="enable-background:new 0 0 29.535 29.535;" xml:space="preserve">
<g>
	<path fill="orange" d="M14.768,0C6.611,0,0,6.609,0,14.768c0,8.155,6.611,14.767,14.768,14.767c8.154,0,14.766-6.612,14.766-14.767
		C29.534,6.609,22.923,0,14.768,0z M14.768,27.126c-6.83,0-12.361-5.532-12.361-12.359c0-6.828,5.531-12.362,12.361-12.362
		c6.824,0,12.359,5.535,12.359,12.362C27.128,21.594,21.592,27.126,14.768,27.126z"/>
	<polygon fill="red" points="16.83,11.143 12.679,11.143 12.679,11.15 11.134,11.15 11.134,13.563 12.679,13.563 12.679,22.181 11.039,22.181
		11.039,24.487 12.679,24.487 12.679,24.503 16.83,24.503 16.83,24.487 18.188,24.487 18.188,22.181 16.83,22.181 	"/>
	<path fill="red" d="M14.726,9.504c1.395,0,2.24-0.928,2.24-2.077c-0.027-1.172-0.846-2.072-2.184-2.072c-1.336,0-2.211,0.899-2.211,2.072
		C12.57,8.576,13.417,9.504,14.726,9.504z"/>
</g>
</svg>
