<?xml version="1.0" encoding="UTF-8" standalone="no"?>
<!-- Created with Inkscape (http://www.inkscape.org/) by Toomai Glittershine for SmashWiki -->
<svg id="svg2" xmlns:rdf="http://www.w3.org/1999/02/22-rdf-syntax-ns#" xmlns="http://www.w3.org/2000/svg" version="1.1" xmlns:cc="http://creativecommons.org/ns#" xmlns:dc="http://purl.org/dc/elements/1.1/"
		height="11px" width="11px"
		viewBox="36 36 182 182">
	<metadata id="metadata7">
		<rdf:RDF>
			<cc:Work rdf:about="">
				<dc:format>image/svg+xml</dc:format>
				<dc:type rdf:resource="http://purl.org/dc/dcmitype/StillImage"/>
				<dc:title/>
			</cc:Work>
		</rdf:RDF>
	</metadata>
	<path id="mainsymbolpath" style="opacity:1;fill:#000000;fill-opacity:1;stroke:none"
		d="m 160.875,69.125003 c -7.50969,-0.0096 -16.37448,-0.0071 -21.84375,0.03125 l -0.53125,0.40625 0,3.8125 c 0,0.467917 0.19487,0.809931 0.59375,1.09375 0.40655,0.29916 0.8051,0.46875 1.25,0.46875 l 1.75,0.1875 c 4.47206,0.184099 6.54259,1.357356 7.15625,2.09375 1.06624,1.304032 1.58506,2.70573 -1,8.34375 L 132.8125,116.375 118.84375,87.812503 c -4.58713,-9.135894 -5.7162,-11.963046 1.1875,-12.5 l 2.71875,-0.40625 c 1.32705,0 2,-0.462178 2,-1.375 l 0,-4 -1,-0.3125 c 0,0 -26.004908,-0.01534 -37.6875,0 l -0.53125,0.40625 0,4 c 0,0.897481 0.908447,1.137206 2.71875,1.375 6.466464,0.851456 6.352575,1.507708 12.75,14.1875 0.95885,1.902353 3.75,7.625 3.75,7.625 l 14.5625,28.624997 c 0,0 3.14792,6.93568 4.25,9.375 l -21.1875,42.25 -1.1875,-0.3125 c 0,0 -32.863238,-69.26409 -42.375,-92.437497 -0.98953,-2.400952 -1.4375,-4.184329 -1.4375,-5.28125 0,-2.354929 2.125391,-3.636072 6.375,-3.8125 l 4.96875,-0.21875 c 1.311702,0 1.96875,-0.511603 1.96875,-1.5625 l 0,-3.78125 -0.4375,-0.40625 c 0,0 -39.368978,-0.04603 -47.5,0 l -0.4375,0.40625 0,4 c 0,0.721053 0.916685,1.14431 2.75,1.34375 4.993676,0.268477 8.294821,1.079206 9.875,2.40625 1.57251,1.342386 3.228317,4.714836 5.4375,10 11.943399,28.688697 37.29863,79.905877 49.65625,109.062497 3.55924,7.96226 8.037837,9.19273 13.46875,-0.25 5.68681,-10.54796 16.83394,-33.328 25.09375,-50.375 7.76747,17.12364 17.70017,38.94878 23.1875,50.25 4.02716,8.30745 8.62509,9.14866 13.28125,0.28125 12.16585,-27.04716 47.71875,-108.437497 47.71875,-108.437497 1.54183,-3.996474 3.68369,-7.080304 6.4375,-9.3125 2.74614,-2.216854 6.99635,-3.465614 12.71875,-3.71875 1.16596,0 1.75,-0.495695 1.75,-1.53125 l 0,-3.84375 -0.4375,-0.375 -43.6875,0 -0.5625,0.375 0,3.84375 c 0,0.452576 0.22612,0.809932 0.625,1.09375 0.40655,0.299161 0.80509,0.46875 1.25,0.46875 l 3.625,0.1875 c 4.47974,0.184098 5.7039,1.059028 7.4375,2.5625 1.72592,1.541826 1.93614,4.177686 0.59375,7.875 L 163.875,177.3125 l -1.5,-0.40625 -24.53125,-50.21875 c 0.0589,-0.12286 0.5625,-1.1875 0.5625,-1.1875 L 158.5,87.937503 c 2.33959,-3.965791 4.5758,-7.475783 5.71875,-9.125 2.09412,-3.014615 3.2776,-3.606523 9,-3.875 1.16596,0 1.75,-0.511603 1.75,-1.5625 l 0,-3.8125 -0.4375,-0.40625 c 0,0 -6.14656,-0.02166 -13.65625,-0.03125 z"
	/>
</svg>
