<?xml version="1.0" encoding="UTF-8"?>
<svg xmlns="http://www.w3.org/2000/svg" xmlns:xlink="http://www.w3.org/1999/xlink" width="11px" height="11px" viewBox="0 0 29.56 31.3" version="1.1">
<g id="surface1">
<path style=" stroke:none;fill-rule:evenodd;fill:rgb(70%,70%,70%);fill-opacity:1;" d="M 16.160156 0.25 L 12.726562 5.789062 L 15.808594 10.273438 L 19.242188 5.859375 L 16.160156 0.25 "/>
<path style="fill:none;stroke-width:0.503;stroke-linecap:square;stroke-linejoin:round;stroke:rgb(28%,28%,28%);stroke-opacity:1;stroke-miterlimit:4;" d="M 16.160156 0.25 L 12.726562 5.789062 L 15.808594 10.273438 L 19.242188 5.859375 Z M 16.160156 0.25 "/>
<path style=" stroke:none;fill-rule:evenodd;fill:rgb(43%,43%,43%);fill-opacity:1;" d="M 19.242188 5.859375 L 15.808594 10.273438 L 21.695312 7.820312 L 25.480469 3.40625 L 19.242188 5.859375 "/>
<path style="fill:none;stroke-width:0.503;stroke-linecap:square;stroke-linejoin:round;stroke:rgb(28%,28%,28%);stroke-opacity:1;stroke-miterlimit:4;" d="M 19.242188 5.859375 L 15.808594 10.273438 L 21.695312 7.820312 L 25.480469 3.40625 Z M 19.242188 5.859375 "/>
<path style=" stroke:none;fill-rule:evenodd;fill:rgb(64%,64%,64%);fill-opacity:1;" d="M 21.695312 7.820312 L 21.625 14.40625 L 24.921875 9.992188 L 25.480469 3.40625 L 21.695312 7.820312 "/>
<path style="fill:none;stroke-width:0.503;stroke-linecap:square;stroke-linejoin:round;stroke:rgb(28%,28%,28%);stroke-opacity:1;stroke-miterlimit:4;" d="M 21.695312 7.820312 L 21.625 14.40625 L 24.921875 9.992188 L 25.480469 3.40625 Z M 21.695312 7.820312 "/>
<path style=" stroke:none;fill-rule:evenodd;fill:rgb(73%,73%,73%);fill-opacity:1;" d="M 24.921875 9.992188 L 21.625 14.40625 L 26.742188 16.300781 L 31.085938 11.183594 L 24.921875 9.992188 "/>
<path style="fill:none;stroke-width:0.503;stroke-linecap:square;stroke-linejoin:round;stroke:rgb(28%,28%,28%);stroke-opacity:1;stroke-miterlimit:4;" d="M 24.921875 9.992188 L 21.625 14.40625 L 26.742188 16.300781 L 31.085938 11.183594 Z M 24.921875 9.992188 "/>
<path style=" stroke:none;fill-rule:evenodd;fill:rgb(60%,60%,60%);fill-opacity:1;" d="M 26.742188 16.300781 L 21.625 14.40625 L 25.339844 19.242188 L 31.226562 21.625 L 26.742188 16.300781 "/>
<path style="fill:none;stroke-width:0.503;stroke-linecap:square;stroke-linejoin:round;stroke:rgb(28%,28%,28%);stroke-opacity:1;stroke-miterlimit:4;" d="M 26.742188 16.300781 L 21.625 14.40625 L 25.339844 19.242188 L 31.226562 21.625 Z M 26.742188 16.300781 "/>
<path style=" stroke:none;fill-rule:evenodd;fill:rgb(22%,22%,22%);fill-opacity:1;" d="M 25.339844 19.242188 L 19.453125 20.855469 L 24.847656 22.398438 L 31.226562 21.625 L 25.339844 19.242188 "/>
<path style="fill:none;stroke-width:0.503;stroke-linecap:square;stroke-linejoin:round;stroke:rgb(28%,28%,28%);stroke-opacity:1;stroke-miterlimit:4;" d="M 25.339844 19.242188 L 19.453125 20.855469 L 24.847656 22.398438 L 31.226562 21.625 Z M 25.339844 19.242188 "/>
<path style=" stroke:none;fill-rule:evenodd;fill:rgb(37%,37%,37%);fill-opacity:1;" d="M 24.847656 22.398438 L 19.453125 20.855469 L 19.101562 25.96875 L 24.992188 29.125 L 24.847656 22.398438 "/>
<path style="fill:none;stroke-width:0.503;stroke-linecap:square;stroke-linejoin:round;stroke:rgb(28%,28%,28%);stroke-opacity:1;stroke-miterlimit:4;" d="M 24.847656 22.398438 L 19.453125 20.855469 L 19.101562 25.96875 L 24.992188 29.125 Z M 24.847656 22.398438 "/>
<path style=" stroke:none;fill-rule:evenodd;fill:rgb(52%,52%,52%);fill-opacity:1;" d="M 15.878906 26.039062 L 15.808594 32.136719 L 19.101562 25.96875 L 19.453125 20.855469 L 15.878906 26.039062 "/>
<path style="fill:none;stroke-width:0.503;stroke-linecap:square;stroke-linejoin:round;stroke:rgb(28%,28%,28%);stroke-opacity:1;stroke-miterlimit:4;" d="M 15.878906 26.039062 L 15.808594 32.136719 L 19.101562 25.96875 L 19.453125 20.855469 Z M 15.878906 26.039062 "/>
<path style=" stroke:none;fill-rule:evenodd;fill:rgb(63%,63%,63%);fill-opacity:1;" d="M 12.726562 5.789062 L 6.558594 3.195312 L 10.132812 7.960938 L 15.808594 10.273438 L 12.726562 5.789062 "/>
<path style="fill:none;stroke-width:0.503;stroke-linecap:square;stroke-linejoin:round;stroke:rgb(28%,28%,28%);stroke-opacity:1;stroke-miterlimit:4;" d="M 12.726562 5.789062 L 6.558594 3.195312 L 10.132812 7.960938 L 15.808594 10.273438 Z M 12.726562 5.789062 "/>
<path style=" stroke:none;fill-rule:evenodd;fill:rgb(14%,14%,14%);fill-opacity:1;" d="M 10.132812 7.960938 L 6.558594 3.195312 L 7.257812 10.0625 L 10.34375 13.988281 L 10.132812 7.960938 "/>
<path style="fill:none;stroke-width:0.503;stroke-linecap:square;stroke-linejoin:round;stroke:rgb(28%,28%,28%);stroke-opacity:1;stroke-miterlimit:4;" d="M 10.132812 7.960938 L 6.558594 3.195312 L 7.257812 10.0625 L 10.34375 13.988281 Z M 10.132812 7.960938 "/>
<path style=" stroke:none;fill-rule:evenodd;fill:rgb(48%,48%,48%);fill-opacity:1;" d="M 7.257812 10.0625 L 1.023438 11.183594 L 5.578125 15.878906 L 10.34375 13.988281 L 7.257812 10.0625 "/>
<path style="fill:none;stroke-width:0.503;stroke-linecap:square;stroke-linejoin:round;stroke:rgb(28%,28%,28%);stroke-opacity:1;stroke-miterlimit:4;" d="M 7.257812 10.0625 L 1.023438 11.183594 L 5.578125 15.878906 L 10.34375 13.988281 Z M 7.257812 10.0625 "/>
<path style=" stroke:none;fill-rule:evenodd;fill:rgb(39%,39%,39%);fill-opacity:1;" d="M 5.578125 15.878906 L 0.25 20.925781 L 6.417969 18.960938 L 10.34375 13.988281 L 5.578125 15.878906 "/>
<path style="fill:none;stroke-width:0.503;stroke-linecap:square;stroke-linejoin:round;stroke:rgb(28%,28%,28%);stroke-opacity:1;stroke-miterlimit:4;" d="M 5.578125 15.878906 L 0.25 20.925781 L 6.417969 18.960938 L 10.34375 13.988281 Z M 5.578125 15.878906 "/>
<path style=" stroke:none;fill-rule:evenodd;fill:rgb(18%,18%,18%);fill-opacity:1;" d="M 6.417969 18.960938 L 0.25 20.925781 L 7.332031 22.046875 L 12.445312 20.996094 L 6.417969 18.960938 "/>
<path style="fill:none;stroke-width:0.503;stroke-linecap:square;stroke-linejoin:round;stroke:rgb(28%,28%,28%);stroke-opacity:1;stroke-miterlimit:4;" d="M 6.417969 18.960938 L 0.25 20.925781 L 7.332031 22.046875 L 12.445312 20.996094 Z M 6.417969 18.960938 "/>
<path style=" stroke:none;fill-rule:evenodd;fill:rgb(23%,23%,23%);fill-opacity:1;" d="M 12.445312 20.996094 L 7.328125 22.046875 L 6.207031 29.195312 L 12.515625 25.902344 L 12.445312 20.996094 "/>
<path style="fill:none;stroke-width:0.503;stroke-linecap:square;stroke-linejoin:round;stroke:rgb(28%,28%,28%);stroke-opacity:1;stroke-miterlimit:4;" d="M 12.445312 20.996094 L 7.328125 22.046875 L 6.207031 29.195312 L 12.515625 25.902344 Z M 12.445312 20.996094 "/>
<path style=" stroke:none;fill-rule:evenodd;fill:rgb(15%,15%,15%);fill-opacity:1;" d="M 12.445312 20.996094 L 12.515625 25.902344 L 15.808594 32.136719 L 15.878906 26.039062 L 12.445312 20.996094 "/>
<path style="fill:none;stroke-width:0.503;stroke-linecap:square;stroke-linejoin:round;stroke:rgb(28%,28%,28%);stroke-opacity:1;stroke-miterlimit:4;" d="M 12.445312 20.996094 L 12.515625 25.902344 L 15.808594 32.136719 L 15.878906 26.039062 Z M 12.445312 20.996094 "/>
<path style=" stroke:none;fill-rule:evenodd;fill:rgb(33%,33%,33%);fill-opacity:1;" d="M 15.878906 16.230469 L 21.625 14.40625 L 21.695312 7.820312 L 15.808594 10.273438 L 15.878906 16.230469 "/>
<path style="fill:none;stroke-width:0.503;stroke-linecap:square;stroke-linejoin:round;stroke:rgb(28%,28%,28%);stroke-opacity:1;stroke-miterlimit:4;" d="M 15.878906 16.230469 L 21.625 14.40625 L 21.695312 7.820312 L 15.808594 10.273438 Z M 15.878906 16.230469 "/>
<path style=" stroke:none;fill-rule:evenodd;fill:rgb(53%,53%,53%);fill-opacity:1;" d="M 21.625 14.40625 L 15.878906 16.230469 L 19.453125 20.855469 L 25.339844 19.242188 L 21.625 14.40625 "/>
<path style="fill:none;stroke-width:0.503;stroke-linecap:square;stroke-linejoin:round;stroke:rgb(28%,28%,28%);stroke-opacity:1;stroke-miterlimit:4;" d="M 21.625 14.40625 L 15.878906 16.230469 L 19.453125 20.855469 L 25.339844 19.242188 Z M 21.625 14.40625 "/>
<path style=" stroke:none;fill-rule:evenodd;fill:rgb(73%,73%,73%);fill-opacity:1;" d="M 15.878906 16.230469 L 12.445312 20.996094 L 15.878906 26.039062 L 19.453125 20.855469 L 15.878906 16.230469 "/>
<path style="fill:none;stroke-width:0.503;stroke-linecap:square;stroke-linejoin:round;stroke:rgb(28%,28%,28%);stroke-opacity:1;stroke-miterlimit:4;" d="M 15.878906 16.230469 L 12.445312 20.996094 L 15.878906 26.039062 L 19.453125 20.855469 Z M 15.878906 16.230469 "/>
<path style=" stroke:none;fill-rule:evenodd;fill:rgb(68%,68%,68%);fill-opacity:1;" d="M 6.417969 18.960938 L 12.445312 20.996094 L 15.878906 16.230469 L 10.34375 13.988281 L 6.417969 18.960938 "/>
<path style="fill:none;stroke-width:0.503;stroke-linecap:square;stroke-linejoin:round;stroke:rgb(28%,28%,28%);stroke-opacity:1;stroke-miterlimit:4;" d="M 6.417969 18.960938 L 12.445312 20.996094 L 15.878906 16.230469 L 10.34375 13.988281 Z M 6.417969 18.960938 "/>
<path style=" stroke:none;fill-rule:evenodd;fill:rgb(41%,41%,41%);fill-opacity:1;" d="M 15.878906 16.230469 L 15.808594 10.273438 L 10.132812 7.960938 L 10.34375 13.988281 L 15.878906 16.230469 "/>
<path style="fill:none;stroke-width:0.503;stroke-linecap:square;stroke-linejoin:round;stroke:rgb(28%,28%,28%);stroke-opacity:1;stroke-miterlimit:4;" d="M 15.878906 16.230469 L 15.808594 10.273438 L 10.132812 7.960938 L 10.34375 13.988281 Z M 15.878906 16.230469 "/>
<path style=" stroke:none;fill-rule:evenodd;fill:rgb(21%,21%,21%);fill-opacity:1;" d="M 21.898438 14.285156 L 21.972656 7.453125 L 15.871094 9.996094 L 9.972656 7.589844 L 10.09375 10.96875 L 10.511719 10.964844 L 10.417969 8.226562 L 15.871094 10.449219 L 21.542969 8.089844 L 21.476562 14.429688 L 25.042969 19.070312 L 19.386719 20.621094 L 15.941406 25.617188 L 12.640625 20.765625 L 6.832031 18.808594 L 10.617188 14.007812 L 10.507812 10.871094 L 10.085938 10.871094 L 10.191406 13.867188 L 6.128906 19.015625 L 6.414062 19.113281 L 12.371094 21.121094 L 15.941406 26.363281 L 19.644531 20.988281 L 25.761719 19.3125 L 21.898438 14.285156 "/>
<path style=" stroke:none;fill-rule:evenodd;fill:rgb(30%,30%,30%);fill-opacity:1;" d="M 19.550781 20.691406 L 16.144531 16.285156 L 16.976562 16.019531 L 21.625 14.546875 L 21.804688 14.347656 L 21.542969 14.296875 L 16.054688 16.035156 L 15.988281 10.34375 L 15.855469 10.117188 L 15.722656 10.347656 L 15.726562 10.632812 L 15.792969 16.019531 L 14.136719 15.347656 L 10.519531 13.882812 L 10.253906 13.929688 L 10.433594 14.132812 L 15.722656 16.273438 L 14.636719 17.777344 L 12.441406 20.824219 L 12.410156 21.089844 L 12.652344 20.984375 L 15.929688 16.433594 L 17.980469 19.085938 L 19.335938 20.84375 L 19.582031 20.953125 L 19.550781 20.691406 "/>
<path style=" stroke:none;fill-rule:evenodd;fill:rgb(70%,70%,70%);fill-opacity:1;" d="M 16.160156 0.25 L 12.726562 5.789062 L 15.808594 10.273438 L 19.242188 5.859375 L 16.160156 0.25 "/>
<path style=" stroke:none;fill-rule:evenodd;fill:rgb(73%,73%,73%);fill-opacity:1;" d="M 24.921875 9.992188 L 21.625 14.40625 L 26.742188 16.300781 L 31.085938 11.183594 L 24.921875 9.992188 "/>
<path style="fill:none;stroke-width:0.503;stroke-linecap:square;stroke-linejoin:round;stroke:rgb(28%,28%,28%);stroke-opacity:1;stroke-miterlimit:4;" d="M 26.742188 16.300781 L 21.625 14.40625 L 25.339844 19.242188 L 31.226562 21.625 Z M 26.742188 16.300781 "/>
<path style=" stroke:none;fill-rule:evenodd;fill:rgb(37%,37%,37%);fill-opacity:1;" d="M 24.847656 22.398438 L 19.453125 20.855469 L 19.101562 25.96875 L 24.992188 29.125 L 24.847656 22.398438 "/>
<path style="fill:none;stroke-width:0.503;stroke-linecap:square;stroke-linejoin:round;stroke:rgb(28%,28%,28%);stroke-opacity:1;stroke-miterlimit:4;" d="M 15.878906 26.039062 L 15.808594 32.136719 L 19.101562 25.96875 L 19.453125 20.855469 Z M 15.878906 26.039062 "/>
<path style="fill:none;stroke-width:0.503;stroke-linecap:square;stroke-linejoin:round;stroke:rgb(28%,28%,28%);stroke-opacity:1;stroke-miterlimit:4;" d="M 10.132812 7.960938 L 6.558594 3.195312 L 7.257812 10.0625 L 10.34375 13.988281 Z M 10.132812 7.960938 "/>
<path style=" stroke:none;fill-rule:evenodd;fill:rgb(48%,48%,48%);fill-opacity:1;" d="M 7.257812 10.0625 L 1.023438 11.183594 L 5.578125 15.878906 L 10.34375 13.988281 L 7.257812 10.0625 "/>
<path style="fill:none;stroke-width:0.503;stroke-linecap:square;stroke-linejoin:round;stroke:rgb(28%,28%,28%);stroke-opacity:1;stroke-miterlimit:4;" d="M 5.578125 15.878906 L 0.25 20.925781 L 6.417969 18.960938 L 10.34375 13.988281 Z M 5.578125 15.878906 "/>
<path style="fill:none;stroke-width:0.503;stroke-linecap:square;stroke-linejoin:round;stroke:rgb(28%,28%,28%);stroke-opacity:1;stroke-miterlimit:4;" d="M 12.445312 20.996094 L 7.328125 22.046875 L 6.207031 29.195312 L 12.515625 25.902344 Z M 12.445312 20.996094 "/>
<path style=" stroke:none;fill-rule:evenodd;fill:rgb(33%,33%,33%);fill-opacity:1;" d="M 15.878906 16.230469 L 21.625 14.40625 L 21.695312 7.820312 L 15.808594 10.273438 L 15.878906 16.230469 "/>
<path style=" stroke:none;fill-rule:evenodd;fill:rgb(53%,53%,53%);fill-opacity:1;" d="M 21.625 14.40625 L 15.878906 16.230469 L 19.453125 20.855469 L 25.339844 19.242188 L 21.625 14.40625 "/>
<path style=" stroke:none;fill-rule:evenodd;fill:rgb(68%,68%,68%);fill-opacity:1;" d="M 6.417969 18.960938 L 12.445312 20.996094 L 15.878906 16.230469 L 10.34375 13.988281 L 6.417969 18.960938 "/>
<path style=" stroke:none;fill-rule:evenodd;fill:rgb(41%,41%,41%);fill-opacity:1;" d="M 15.878906 16.230469 L 15.808594 10.273438 L 10.132812 7.960938 L 10.34375 13.988281 L 15.878906 16.230469 "/>
<path style=" stroke:none;fill-rule:evenodd;fill:rgb(21%,21%,21%);fill-opacity:1;" d="M 21.898438 14.285156 L 21.972656 7.453125 L 15.871094 9.996094 L 9.972656 7.589844 L 10.09375 10.96875 L 10.511719 10.964844 L 10.417969 8.226562 L 15.871094 10.449219 L 21.542969 8.089844 L 21.476562 14.429688 L 25.042969 19.070312 L 19.386719 20.621094 L 15.941406 25.617188 L 12.640625 20.765625 L 6.832031 18.808594 L 10.617188 14.007812 L 10.507812 10.871094 L 10.085938 10.871094 L 10.191406 13.867188 L 6.128906 19.015625 L 6.414062 19.113281 L 12.371094 21.121094 L 15.941406 26.363281 L 19.644531 20.988281 L 25.761719 19.3125 L 21.898438 14.285156 "/>
<path style=" stroke:none;fill-rule:evenodd;fill:rgb(30%,30%,30%);fill-opacity:1;" d="M 19.550781 20.691406 L 16.144531 16.285156 L 16.976562 16.019531 L 21.625 14.546875 L 21.804688 14.347656 L 21.542969 14.296875 L 16.054688 16.035156 L 15.988281 10.34375 L 15.855469 10.117188 L 15.722656 10.347656 L 15.726562 10.632812 L 15.792969 16.019531 L 14.136719 15.347656 L 10.519531 13.882812 L 10.253906 13.929688 L 10.433594 14.132812 L 15.722656 16.273438 L 14.636719 17.777344 L 12.441406 20.824219 L 12.410156 21.089844 L 12.652344 20.984375 L 15.929688 16.433594 L 17.980469 19.085938 L 19.335938 20.84375 L 19.582031 20.953125 L 19.550781 20.691406 "/>
</g>
</svg>
