<?xml version="1.0" encoding="iso-8859-1"?>
<!-- Generator: Adobe Illustrator 16.0.0, SVG Export Plug-In . SVG Version: 6.00 Build 0)  -->
<!DOCTYPE svg PUBLIC "-//W3C//DTD SVG 1.1//EN" "http://www.w3.org/Graphics/SVG/1.1/DTD/svg11.dtd">
<svg version="1.1" id="Capa_1" xmlns="http://www.w3.org/2000/svg" xmlns:xlink="http://www.w3.org/1999/xlink" x="0px" y="0px"
	 width="31.765px" height="31.765px" viewBox="0 0 31.765 31.765" style="enable-background:new 0 0 31.765 31.765;"
	 xml:space="preserve">
<g>
	<g>
		<path d="M28.348,14.149l-3.045-5.274l-5.273,3.045l3.045,5.273c1.56,2.701,0.631,6.166-2.069,7.726s-6.166,0.63-7.726-2.07
			l-3.045-5.274l-5.273,3.045l3.045,5.275c3.238,5.608,10.436,7.536,16.044,4.299C29.658,26.954,31.586,19.757,28.348,14.149z"/>
		<polygon points="19.594,11.166 24.867,8.121 23.128,5.107 20.695,6.511 18.229,7.935 17.854,8.152 		"/>
		<polygon points="8.059,13.807 5.626,15.211 3.159,16.635 2.784,16.852 4.525,19.865 9.799,16.82 		"/>
		<polygon points="20.025,3.245 19.68,0 19.382,4.235 20.385,3.268 20.695,6.511 20.972,2.238 		"/>
		<polygon points="4.955,11.945 4.61,8.7 4.313,12.935 5.316,11.968 5.626,15.211 5.902,10.939 		"/>
		<polygon points="18.229,7.935 18.504,3.663 17.557,4.669 17.212,1.424 16.914,5.659 17.918,4.693 		"/>
		<polygon points="2.487,13.37 2.143,10.125 1.846,14.36 2.848,13.393 3.159,16.635 3.435,12.363 		"/>
	</g>
</g>
<g>
</g>
<g>
</g>
<g>
</g>
<g>
</g>
<g>
</g>
<g>
</g>
<g>
</g>
<g>
</g>
<g>
</g>
<g>
</g>
<g>
</g>
<g>
</g>
<g>
</g>
<g>
</g>
<g>
</g>
</svg>
