<?xml version="1.0" encoding="iso-8859-1"?>
<!-- Generator: Adobe Illustrator 16.0.0, SVG Export Plug-In . SVG Version: 6.00 Build 0)  -->
<!DOCTYPE svg PUBLIC "-//W3C//DTD SVG 1.1//EN" "http://www.w3.org/Graphics/SVG/1.1/DTD/svg11.dtd">
<svg version="1.1" id="Capa_1" xmlns="http://www.w3.org/2000/svg" xmlns:xlink="http://www.w3.org/1999/xlink" x="0px" y="0px"
	 width="29.643px" height="29.643px" viewBox="0 0 29.643 29.643" style="enable-background:new 0 0 29.643 29.643;"
	 xml:space="preserve">
<g>
	<g>
		<polygon points="16.208,16.432 20.484,16.405 22.206,16.393 22.19,14.132 16.193,14.17 		"/>
		<polygon points="11.879,16.568 11.864,14.307 8.898,14.327 6.15,14.343 6.164,16.605 		"/>
		<path d="M22.574,16.732v0.024l-0.366,0.002l-6,0.04l-0.367,0.002l-0.002-0.367l-0.013-2.262l-0.002-0.366l0.367-0.002l3.345-0.022
			l-0.271-0.747h-1.09c0.104-0.356,0.162-0.732,0.162-1.123c0-0.448-0.09-0.87-0.225-1.271l0.822-1.134l-1.473-0.519l0.287-1.504
			L15.95,8l-0.827-1.736l-1.536,1.602l-1.19-1.378l-0.561,1.82L9.928,7.681l0.721,1.609L9.257,9.68l1.169,1.059
			c-0.05,0.165-0.102,0.332-0.13,0.506c-0.036,0.216-0.056,0.44-0.056,0.667c0,0.39,0.058,0.766,0.162,1.123H9.365L9.03,13.957
			l2.831-0.017l0.367-0.002l0.002,0.365l0.016,2.262l0.002,0.369l-0.367,0.002l-8.99,0.037l-0.365,0.002l0.013,1.678l0.654,0.009
			v10.981h0.943V18.661h6.231l0.015,1.36h-1.53v0.662h1.312v8.455h2.898v-8.455h1.916v8.455h2.897v-8.455h1.142v-0.662h-1.341
			l0.002-1.36h7.05v10.981h0.94V18.661h1.448v-1.929H22.574z"/>
		<polygon points="13.115,1.955 11.923,1.955 13.036,0.703 13.036,0.26 11.234,0.26 11.234,0.703 12.263,0.703 11.151,1.955 
			11.151,2.398 13.115,2.398 		"/>
		<polygon points="9.265,6.76 8.321,6.76 9.203,5.766 9.203,5.416 7.774,5.416 7.774,5.766 8.591,5.766 7.709,6.76 7.709,7.109 
			9.265,7.109 		"/>
		<polygon points="14.662,5.025 13.888,4.649 15.005,4.185 15.145,3.896 13.971,3.329 13.831,3.617 14.501,3.941 13.383,4.408 
			13.244,4.694 14.523,5.313 		"/>
		<polygon points="20.325,4.611 19.372,6.162 19.456,6.637 21.559,6.265 21.476,5.79 20.199,6.016 21.154,4.463 21.07,3.988 
			19.137,4.332 19.221,4.806 		"/>
		<polygon points="19.773,0.384 19.328,1.106 19.367,1.328 20.349,1.153 20.309,0.932 19.713,1.038 20.16,0.315 20.12,0.093 
			19.219,0.254 19.258,0.474 		"/>
		<polygon points="9.188,1.676 8.805,1.492 9.358,1.26 9.426,1.12 8.846,0.839 8.778,0.981 9.109,1.141 8.556,1.371 8.487,1.513 
			9.119,1.819 		"/>
		<polygon points="15.175,0.837 14.793,0.653 15.345,0.422 15.414,0.281 14.835,0 14.766,0.142 15.097,0.303 14.545,0.533 
			14.475,0.675 15.107,0.979 		"/>
		<polygon points="17.34,3.677 16.958,3.491 17.51,3.262 17.578,3.119 16.999,2.839 16.93,2.979 17.26,3.14 16.708,3.371 
			16.639,3.515 17.271,3.819 		"/>
	</g>
</g>
<g>
</g>
<g>
</g>
<g>
</g>
<g>
</g>
<g>
</g>
<g>
</g>
<g>
</g>
<g>
</g>
<g>
</g>
<g>
</g>
<g>
</g>
<g>
</g>
<g>
</g>
<g>
</g>
<g>
</g>
</svg>
