<?xml version="1.0" encoding="iso-8859-1"?>
<!-- Generator: Adobe Illustrator 16.0.0, SVG Export Plug-In . SVG Version: 6.00 Build 0)  -->
<!DOCTYPE svg PUBLIC "-//W3C//DTD SVG 1.1//EN" "http://www.w3.org/Graphics/SVG/1.1/DTD/svg11.dtd">
<svg version="1.1" id="Capa_1" xmlns="http://www.w3.org/2000/svg" xmlns:xlink="http://www.w3.org/1999/xlink" x="0px" y="0px"
	 width="79.538px" height="79.538px" viewBox="0 0 79.538 79.538" style="enable-background:new 0 0 79.538 79.538;"
	 xml:space="preserve">
<g>
	<path style="fill:#010002;" d="M66.193,49.575c1.485,2.967,8.171,18.559,8.171,20.785c0,12.236-16.337,12.236-16.337,0
		C58.027,68.134,64.717,51.802,66.193,49.575z M75.84,41.275c0-1.688,0-4.498,0-9.435c0-5.976-5.422-11.141-12.614-11.141
		c0,0-0.041,0-16.806,0l-0.09-5.237c0-1.507-1.226-2.736-2.742-2.736H37.02V9.359c0.567-0.339,1.038-0.759,1.442-1.279
		c1.973,0,5.965,0,13.994,0c0.933,1.199,2.32,2.038,3.946,2.038c2.785,0,5.054-2.26,5.054-5.054C61.455,2.263,59.197,0,56.401,0
		c-1.668,0-3.087,0.886-4.009,2.141c-2.205,0-6.343,0-13.866,0C37.591,0.886,36.186,0,34.505,0c-1.665,0-3.091,0.886-4.003,2.141
		c-4.295,0-9.385,0-15.319,0C14.267,0.886,12.851,0,11.186,0C8.392,0,6.126,2.263,6.126,5.064c0,2.793,2.266,5.054,5.059,5.054
		c1.629,0,3.011-0.834,3.93-2.038c2.535,0,7.146,0,15.444,0c0.404,0.531,0.886,0.96,1.465,1.284v3.361h-6.972
		c-1.507,0-2.737,1.229-2.737,2.736v5.245c-1.714,0-6.623,0-20.42,0v16.335c0.482,0,3.791,0,22.711,0
		c2.227,4.466,5.191,6.677,9.649,6.677c4.453,0,8.166-2.211,10.393-6.677c0,0,0,0,8.168,0c2.444,0,3.346,1.571,3.604,4.577
		c-0.715,0.487-1.212,1.276-1.212,2.208c0,1.513,1.228,2.74,2.734,2.74h16.953c1.512,0,2.744-1.228,2.744-2.74
		C77.646,42.642,76.896,41.655,75.84,41.275z"/>
</g>
<g>
</g>
<g>
</g>
<g>
</g>
<g>
</g>
<g>
</g>
<g>
</g>
<g>
</g>
<g>
</g>
<g>
</g>
<g>
</g>
<g>
</g>
<g>
</g>
<g>
</g>
<g>
</g>
<g>
</g>
</svg>
