<?xml version="1.0" encoding="iso-8859-1"?>
<!-- Generator: Adobe Illustrator 18.0.0, SVG Export Plug-In . SVG Version: 6.00 Build 0)  -->
<!DOCTYPE svg PUBLIC "-//W3C//DTD SVG 1.1//EN" "http://www.w3.org/Graphics/SVG/1.1/DTD/svg11.dtd">
<svg version="1.1" id="Capa_1" xmlns="http://www.w3.org/2000/svg" xmlns:xlink="http://www.w3.org/1999/xlink" x="0px" y="0px"
	 viewBox="0 0 460 460" style="enable-background:new 0 0 460 460;" xml:space="preserve">
<g>
	<path d="M416.463,322.81h-22.728v-37.2l-27.879-0.336v26.572H56.971V126.241h308.885v62.479l27.879,1.408v-75.742
		c0-8.849-7.173-16.025-16.025-16.025H45.12c-8.85,0-16.022,7.176-16.022,16.025V322.81H7.318c-4.042,0-7.318,3.276-7.318,7.32
		c0,17.369,14.137,31.508,31.509,31.508h253.477v-13.625c0-4.847,3.925-8.777,8.772-8.777c4.846,0,8.78,3.931,8.78,8.777v13.625
		h14.39v-13.625c0-4.847,3.934-8.777,8.772-8.777c4.849,0,8.781,3.931,8.781,8.777v13.625h57.788
		c17.376,0,31.511-14.139,31.511-31.508C423.78,326.086,420.507,322.81,416.463,322.81z"/>
	<path d="M148.055,175.157c-2.102-6.829-6.54-11.974-13.212-9.918c-6.449,1.981-7.759,8.643-5.544,15.855
		c2.215,7.045,6.83,11.965,13.278,9.983C148.948,189.12,150.428,182.871,148.055,175.157z M141.373,186.621
		c-2.262,0.695-4.484-1.605-6.202-7.334c-1.816-5.78-1.202-8.951,0.948-9.614c2.34-0.72,4.43,1.832,6.13,7.356
		C143.988,182.705,143.641,185.925,141.373,186.621z"/>
	<path d="M170.98,171.374c-1.093-7.059-4.743-12.788-11.647-11.719c-6.661,1.035-8.922,7.438-7.762,14.895
		c1.172,7.293,5.036,12.824,11.705,11.79C169.857,185.32,172.221,179.347,170.98,171.374z M162.722,181.755
		c-2.34,0.362-4.201-2.23-5.083-8.147c-0.967-5.982,0.104-9.033,2.323-9.377c2.42-0.377,4.12,2.448,5.001,8.158
		C165.88,178.258,165.067,181.392,162.722,181.755z"/>
	<polygon points="188.13,157.764 183.072,157.911 176.269,161.317 177.401,165.862 182.305,163.352 182.387,163.35 182.98,184.006 
		188.881,183.838 	"/>
	<path d="M208.423,158.11c-6.724-0.545-10.407,5.157-11.02,12.679c-0.554,7.365,1.916,13.644,8.64,14.19
		c6.637,0.538,10.329-4.723,10.979-12.763C217.599,165.095,215.384,158.676,208.423,158.11z M210.938,171.804
		c-0.482,5.922-2.004,8.777-4.359,8.585c-2.364-0.189-3.574-3.147-3.05-9.105c0.45-6.044,2.201-8.761,4.441-8.58
		C210.408,162.904,211.401,166.044,210.938,171.804z"/>
	<polygon points="231.391,161.513 224.029,163.463 224.214,168.143 229.534,166.685 229.608,166.699 225.985,187.052 
		231.793,188.086 236.371,162.398 	"/>
	<polygon points="252.942,193.151 259.64,167.934 254.749,166.635 247.251,167.966 247.044,172.649 252.465,171.637 
		252.545,171.657 247.239,191.637 	"/>
	<path d="M278.393,173.369c-6.376-2.197-11.36,2.411-13.814,9.547c-2.369,6.995-1.533,13.692,4.837,15.89
		c6.305,2.172,11.18-2.006,13.81-9.636C285.555,182.417,284.997,175.644,278.393,173.369z M277.431,187.259
		c-1.935,5.616-4.12,8.009-6.359,7.234c-2.24-0.77-2.673-3.936-0.688-9.576c1.937-5.745,4.308-7.943,6.432-7.21
		C279.133,178.503,279.315,181.795,277.431,187.259z"/>
	<path d="M289.855,206.592c6.168,2.527,11.273-1.361,14.342-8.822c2.71-6.607,2.545-13.396-3.91-16.048
		c-6.237-2.561-11.48,1.752-14.347,8.729C283.178,197.298,283.625,204.031,289.855,206.592z M291.624,192.783
		c2.262-5.62,4.759-7.679,6.835-6.825c2.262,0.932,2.256,4.224,0.06,9.568c-2.253,5.496-4.565,7.754-6.758,6.855
		C289.569,201.483,289.314,198.3,291.624,192.783z"/>
	<polygon points="315.609,216.02 324.268,191.409 319.498,189.729 311.925,190.466 311.35,195.115 316.831,194.533 316.909,194.56 
		310.043,214.059 	"/>
	<path d="M341.063,195.974c-6.514-1.732-11.153,3.219-13.092,10.51c-1.863,7.146-0.547,13.766,5.968,15.499
		c6.436,1.713,11.003-2.803,13.076-10.598C348.853,204.484,347.816,197.771,341.063,195.974z M341.098,209.896
		c-1.527,5.737-3.534,8.276-5.816,7.668c-2.288-0.608-2.953-3.733-1.378-9.502c1.521-5.865,3.727-8.226,5.895-7.648
		C342.168,201.044,342.583,204.31,341.098,209.896z"/>
	<polygon points="360.972,200.832 353.626,202.826 353.84,207.507 359.147,206.016 359.227,206.03 355.713,226.402 361.532,227.401 
		365.955,201.693 	"/>
	<polygon points="382.099,203.477 374.996,206.212 375.686,210.844 380.81,208.82 380.89,208.824 379.491,229.446 385.377,229.846 
		387.144,203.819 	"/>
	<path d="M405.3,230.25c6.651-0.332,9.62-6.023,9.221-14.08c-0.35-7.132-3.39-13.209-10.36-12.859
		c-6.735,0.336-9.645,6.468-9.267,14C395.303,224.682,398.565,230.587,405.3,230.25z M404.308,207.922
		c2.442-0.12,3.841,2.864,4.128,8.632c0.297,5.934-0.842,8.961-3.203,9.082c-2.365,0.117-3.949-2.658-4.208-8.632
		C400.679,210.955,402.062,208.034,404.308,207.922z"/>
	<polygon points="424.153,201.477 417.957,205.9 419.786,210.212 424.241,206.973 424.32,206.956 428.112,227.274 433.911,226.188 
		429.121,200.549 	"/>
	<path d="M453.862,220.986c6.277-2.235,7.484-8.544,4.78-16.142c-2.399-6.731-7.053-11.676-13.634-9.335
		c-6.349,2.262-7.37,8.972-4.843,16.078C442.68,218.53,447.513,223.243,453.862,220.986z M446.482,199.884
		c2.304-0.819,4.5,1.637,6.438,7.079c1.991,5.599,1.778,8.824-0.453,9.62c-2.233,0.793-4.546-1.407-6.514-7.053
		C443.883,203.834,444.366,200.64,446.482,199.884z"/>
	<polygon points="134.088,206.065 128.433,211.163 130.734,215.243 134.8,211.517 134.877,211.493 140.952,231.253 146.589,229.516 
		138.925,204.579 	"/>
	<path d="M159.333,199.791c-6.661,1.035-8.922,7.438-7.762,14.894c1.172,7.294,5.036,12.825,11.705,11.791
		c6.58-1.021,8.944-6.994,7.703-14.966C169.887,204.447,166.236,198.719,159.333,199.791z M162.722,221.891
		c-2.34,0.362-4.201-2.23-5.083-8.148c-0.967-5.981,0.104-9.032,2.323-9.376c2.42-0.377,4.12,2.447,5.001,8.158
		C165.88,218.394,165.067,221.528,162.722,221.891z"/>
	<polygon points="176.269,201.452 177.401,205.994 182.305,203.487 182.387,203.483 182.98,224.142 188.881,223.974 188.13,197.9 
		183.072,198.043 	"/>
	<path d="M208.423,198.244c-6.724-0.544-10.407,5.158-11.02,12.68c-0.554,7.364,1.916,13.643,8.64,14.186
		c6.637,0.539,10.329-4.719,10.979-12.76C217.599,205.23,215.384,198.808,208.423,198.244z M210.938,211.94
		c-0.482,5.922-2.004,8.777-4.359,8.585c-2.364-0.191-3.574-3.149-3.05-9.105c0.45-6.044,2.201-8.762,4.441-8.58
		C210.408,203.038,211.401,206.176,210.938,211.94z"/>
	<polygon points="231.793,228.222 236.371,202.533 231.391,201.648 224.029,203.599 224.214,208.279 229.534,206.82 
		229.608,206.835 225.985,227.187 	"/>
	<path d="M242.662,217.101c-1.861,7.148-0.541,13.77,5.976,15.501c6.439,1.709,11.006-2.81,13.075-10.607
		c1.836-6.907,0.796-13.622-5.961-15.416C249.235,204.848,244.598,209.806,242.662,217.101z M248.597,218.677
		c1.519-5.868,3.725-8.234,5.894-7.656c2.369,0.629,2.786,3.898,1.303,9.483c-1.524,5.743-3.524,8.283-5.813,7.676
		C247.689,227.572,247.023,224.447,248.597,218.677z"/>
	<path d="M269.415,238.942c6.305,2.172,11.18-2.006,13.81-9.636c2.329-6.756,1.772-13.526-4.833-15.801
		c-6.376-2.197-11.36,2.41-13.814,9.547C262.209,230.046,263.045,236.744,269.415,238.942z M270.383,225.052
		c1.937-5.744,4.308-7.942,6.432-7.209c2.318,0.796,2.501,4.088,0.616,9.551c-1.935,5.617-4.12,8.007-6.359,7.235
		C268.831,233.859,268.398,230.694,270.383,225.052z"/>
	<path d="M289.855,246.728c6.168,2.526,11.273-1.361,14.342-8.822c2.71-6.607,2.545-13.4-3.91-16.051
		c-6.237-2.56-11.48,1.752-14.347,8.732C283.178,237.433,283.625,244.167,289.855,246.728z M291.624,232.918
		c2.262-5.619,4.759-7.678,6.835-6.824c2.262,0.932,2.256,4.223,0.06,9.568c-2.253,5.496-4.565,7.754-6.758,6.854
		C289.569,241.617,289.314,238.436,291.624,232.918z"/>
	<path d="M311.369,255.131c6.286,2.211,11.19-1.933,13.872-9.543c2.374-6.74,1.867-13.516-4.723-15.834
		c-6.364-2.24-11.374,2.336-13.882,9.454C304.221,246.189,305.013,252.891,311.369,255.131z M312.43,241.248
		c1.975-5.73,4.359-7.914,6.48-7.166c2.313,0.813,2.47,4.102,0.549,9.555c-1.972,5.605-4.165,7.978-6.401,7.191
		C310.821,250.042,310.407,246.874,312.43,241.248z"/>
	<polygon points="338.234,262.808 344.948,237.598 340.06,236.297 332.564,237.628 332.353,242.305 337.774,241.297 
		337.853,241.318 332.533,261.289 	"/>
	<polygon points="361.532,267.536 365.955,241.828 360.972,240.967 353.626,242.961 353.84,247.64 359.147,246.152 359.227,246.166 
		355.713,266.537 	"/>
	<polygon points="385.377,269.981 387.144,243.954 382.099,243.612 374.996,246.348 375.686,250.98 380.81,248.955 380.89,248.96 
		379.491,269.581 	"/>
	<path d="M405.3,270.386c6.651-0.333,9.62-6.023,9.221-14.08c-0.35-7.132-3.39-13.21-10.36-12.859
		c-6.735,0.335-9.645,6.464-9.267,14C395.303,264.818,398.565,270.722,405.3,270.386z M404.308,248.058
		c2.442-0.124,3.841,2.86,4.128,8.632c0.297,5.931-0.842,8.961-3.203,9.078c-2.365,0.121-3.949-2.654-4.208-8.629
		C400.679,251.091,402.062,248.17,404.308,248.058z"/>
	<polygon points="424.153,241.612 417.957,246.035 419.786,250.348 424.241,247.108 424.32,247.092 428.112,267.405 
		433.911,266.323 429.121,240.685 	"/>
	<path d="M445.009,235.644c-6.349,2.262-7.37,8.973-4.843,16.079c2.514,6.942,7.347,11.656,13.696,9.394
		c6.277-2.231,7.484-8.54,4.78-16.138C456.243,238.248,451.59,233.304,445.009,235.644z M452.466,256.716
		c-2.233,0.796-4.546-1.404-6.514-7.05c-2.069-5.696-1.586-8.892,0.529-9.646c2.304-0.819,4.5,1.636,6.438,7.079
		C454.91,252.694,454.697,255.923,452.466,256.716z"/>
</g>
<g>
</g>
<g>
</g>
<g>
</g>
<g>
</g>
<g>
</g>
<g>
</g>
<g>
</g>
<g>
</g>
<g>
</g>
<g>
</g>
<g>
</g>
<g>
</g>
<g>
</g>
<g>
</g>
<g>
</g>
</svg>
