<?xml version="1.0" encoding="iso-8859-1"?>
<!-- Generator: Adobe Illustrator 18.1.1, SVG Export Plug-In . SVG Version: 6.00 Build 0)  -->
<svg version="1.1" id="Capa_1" xmlns="http://www.w3.org/2000/svg" xmlns:xlink="http://www.w3.org/1999/xlink" x="0px" y="0px"
	 viewBox="0 0 612 612" style="enable-background:new 0 0 612 612;" xml:space="preserve">
<g>
	<g>
		<path d="M80.41,117.432h7.481v21.214V286.89h-6.978c-7.883,0-14.273,6.39-14.273,14.273c0,7.883,6.39,14.273,14.273,14.273h6.978
			v88.368c0,10.51,8.521,19.031,19.031,19.031h58.102c10.51,0,19.031-8.521,19.031-19.031v-88.368h102.915v208.387h38.062V400.275
			h102.915v85.996c0,10.51,8.52,19.031,19.031,19.031h58.101c10.511,0,19.031-8.521,19.031-19.031v-85.996h7.613
			c7.883,0,14.273-6.391,14.273-14.273c0-7.883-6.39-14.273-14.273-14.273h-7.613V199.898h7.481c10.51,0,19.031-8.52,19.031-19.031
			v-13.249c0-10.511-8.521-19.031-19.031-19.031h-21.386c0.21-0.988,0.322-2.012,0.322-3.062c0-8.105-6.571-14.676-14.677-14.676
			s-14.676,6.571-14.676,14.676c0,1.051,0.112,2.074,0.322,3.062h-61.031c-10.511,0-19.031,8.52-19.031,19.031v13.249
			c0,10.511,8.52,19.031,19.031,19.031h7.481v21.214v150.616H325.031V19.031C325.031,8.52,316.51,0,306,0
			s-19.031,8.52-19.031,19.031V286.89H184.054V117.432h7.481c10.51,0,19.031-8.521,19.031-19.031V85.152
			c0-10.511-8.521-19.031-19.031-19.031H170.04c0.21-0.988,0.322-2.012,0.322-3.062c0-8.105-6.571-14.676-14.676-14.676
			s-14.676,6.571-14.676,14.676c0,1.05,0.112,2.074,0.322,3.062H80.41c-10.51,0-19.031,8.52-19.031,19.031v13.249
			C61.379,108.911,69.899,117.432,80.41,117.432z M456.313,342.975c1.056,0.241,2.152,0.372,3.28,0.372
			c8.105,0,14.676-6.571,14.676-14.676c0-8.105-6.571-14.676-14.676-14.676c-1.128,0-2.225,0.131-3.28,0.372v-21.905h39.429v79.267
			h-39.429V342.975z M456.313,400.275h39.429v10.868c-4.855,0.059-8.773,4.007-8.773,8.876s3.918,8.817,8.773,8.876v47.083h-39.429
			V400.275z M116.258,260.533c1.022,0.225,2.082,0.348,3.172,0.348c8.105,0,14.676-6.571,14.676-14.676s-6.571-14.676-14.676-14.676
			c-1.09,0-2.15,0.122-3.172,0.348v-21.88h39.428v76.895h-39.428V260.533z M116.258,315.436h39.428v13.235
			c-4.905,0-8.881,3.976-8.881,8.881c0,4.905,3.977,8.881,8.881,8.881v47.078h-39.428V315.436z"/>
		<path d="M563.552,590.432c0-21.021-17.041-38.062-38.062-38.062h-200.46h-38.062H86.51c-21.021,0-38.062,17.041-38.062,38.062V612
			h515.104V590.432z"/>
		<circle cx="135.972" cy="369.674" r="8.881"/>
		<circle cx="110.265" cy="19.031" r="14.676"/>
		<circle cx="476.136" cy="452.141" r="8.881"/>
		<circle cx="450.429" cy="101.498" r="14.676"/>
	</g>
</g>
<g>
</g>
<g>
</g>
<g>
</g>
<g>
</g>
<g>
</g>
<g>
</g>
<g>
</g>
<g>
</g>
<g>
</g>
<g>
</g>
<g>
</g>
<g>
</g>
<g>
</g>
<g>
</g>
<g>
</g>
</svg>
