<?xml version="1.0" encoding="iso-8859-1"?>
<!-- Generator: Adobe Illustrator 18.0.0, SVG Export Plug-In . SVG Version: 6.00 Build 0)  -->
<!DOCTYPE svg PUBLIC "-//W3C//DTD SVG 1.1//EN" "http://www.w3.org/Graphics/SVG/1.1/DTD/svg11.dtd">
<svg version="1.1" id="Capa_1" xmlns="http://www.w3.org/2000/svg" xmlns:xlink="http://www.w3.org/1999/xlink" x="0px" y="0px"
	 viewBox="0 0 463.814 463.814" style="enable-background:new 0 0 463.814 463.814;" xml:space="preserve">
<g>
	<path d="M163.242,87.078c-12.69,0-16.587,15.771-19.492,31.926c-2.618,14.56-4.733,34.01-6.778,52.818
		c-1.792,16.487-4.191,38.544-6.92,53.427c-2.157-10.623-4.083-24.571-5.561-35.277c-1.978-14.324-4.023-29.137-6.622-40.337
		c-1.933-8.332-5.955-25.669-19.29-25.669c-12.604,0-17.484,14.701-19.087,19.532c-2.721,8.197-4.836,18.823-6.883,29.098
		c-1.713,8.604-4.309,21.639-6.95,28.854c-1.676-3.797-3.396-9.102-4.496-12.499c-4.435-13.682-9.021-27.83-22.114-27.83H0v20
		h36.811c1.723,2.877,3.934,9.698,5.327,13.997c4.562,14.073,9.731,30.025,24.111,30.025c12.607,0,17.487-14.704,19.091-19.536
		c2.722-8.199,4.838-18.827,6.884-29.105c1.425-7.157,3.462-17.384,5.627-24.771c2.667,10.852,5.065,28.216,6.827,40.977
		c1.978,14.324,4.023,29.137,6.622,40.337c1.933,8.332,5.955,25.669,19.29,25.669c12.688,0,16.585-15.769,19.489-31.921
		c2.617-14.557,4.732-34.002,6.776-52.808c1.787-16.431,4.175-38.393,6.893-53.276c2.229,11.012,4.226,25.594,5.755,36.763
		c1.508,11.017,2.861,20.889,4.335,29.469c1.707-15.329,6.453-29.972,13.957-43.209C182.799,108.159,178.53,87.078,163.242,87.078z"
		/>
	<path d="M269.622,189.745c-3.358,8.573-5.573,19.257-7.526,28.684c-0.309,1.494-0.655,3.159-1.021,4.87
		c-2.266-8.888-4.389-20.283-5.912-28.461c-2.267-12.172-4.304-23.088-6.798-32.019c-7.628,7.941-12.521,17.851-14.198,28.587
		c0.48,2.519,0.929,4.922,1.333,7.095c6.128,32.895,10.555,56.663,26.947,56.663c10.15,0,13.66-10.739,14.813-14.268
		c1.649-5.048,2.995-11.537,4.418-18.408c1.616-7.797,3.287-15.859,5.497-22.485c2.395-7.18,4.386-9.355,4.984-9.88h35.709v-20
		h-36.134C282.162,170.123,274.722,176.725,269.622,189.745z"/>
	<path d="M456.022,331.318l-68.697-68.697c-5.084-5.085-11.717-7.675-18.381-7.781c25.771-38.398,21.711-91.015-12.197-124.922
		c-38.529-38.53-101.221-38.53-139.749,0c-38.53,38.529-38.53,101.221,0,139.75c33.907,33.907,86.524,37.969,124.921,12.196
		c0.107,6.665,2.697,13.297,7.782,18.382l68.697,68.697c10.391,10.391,27.234,10.391,37.625,0S466.412,341.708,456.022,331.318z
		 M335.247,248.168c-26.674,26.675-70.076,26.675-96.75,0c-26.674-26.674-26.674-70.076,0-96.75
		c26.674-26.674,70.076-26.674,96.75,0C361.921,178.092,361.921,221.494,335.247,248.168z"/>
</g>
<g>
</g>
<g>
</g>
<g>
</g>
<g>
</g>
<g>
</g>
<g>
</g>
<g>
</g>
<g>
</g>
<g>
</g>
<g>
</g>
<g>
</g>
<g>
</g>
<g>
</g>
<g>
</g>
<g>
</g>
</svg>
