<?xml version="1.0" encoding="iso-8859-1"?>
<!-- Generator: Adobe Illustrator 18.0.0, SVG Export Plug-In . SVG Version: 6.00 Build 0)  -->
<!DOCTYPE svg PUBLIC "-//W3C//DTD SVG 1.1//EN" "http://www.w3.org/Graphics/SVG/1.1/DTD/svg11.dtd">
<svg version="1.1" id="Capa_1" xmlns="http://www.w3.org/2000/svg" xmlns:xlink="http://www.w3.org/1999/xlink" x="0px" y="0px"
	 viewBox="0 0 376 376" style="enable-background:new 0 0 376 376;" xml:space="preserve">
<g>
	<path d="M366,341H20V25c0-5.523-4.477-10-10-10C4.477,15,0,19.477,0,25v326c0,5.523,4.477,10,10,10h356c5.523,0,10-4.477,10-10
		C376,345.477,371.523,341,366,341z"/>
	<path d="M29.758,317.126h316.484c0.553,0,1-0.448,1-1c0-0.552-0.447-1-1-1H29.758c-0.553,0-1,0.448-1,1
		C28.758,316.678,29.205,317.126,29.758,317.126z"/>
	<path d="M28.758,256.126c0,0.552,0.447,1,1,1h28.571c1.112,4.116,2.576,8.615,4.5,13.135c9.14,21.469,24.059,32.816,43.145,32.816
		c24.957,0,34.054-30.883,37.044-41.032c0.472-1.601,0.924-3.249,1.365-4.919H247.08c6.877,14.565,15.85,23.683,28.561,23.683
		c13.278,0,22.481-7.963,27.393-23.683h43.209c0.553,0,1-0.448,1-1c0-0.552-0.447-1-1-1h-42.639
		c0.117-0.422,0.246-0.824,0.357-1.256c3.668-14.173,4.16-32.203,4.681-51.291c0.05-1.816,0.1-3.635,0.152-5.453h37.448
		c0.553,0,1-0.448,1-1c0-0.552-0.447-1-1-1h-37.389c0.022-0.693,0.042-1.388,0.064-2.08c7.695-3.432,16.016-5.636,26.223-5.636
		c1.657,0,3-1.343,3-3c0-1.657-1.343-3-3-3c-10,0-18.375,1.975-25.978,5.036c0.866-20.485,2.881-39.428,10.366-49.32h26.714
		c0.553,0,1-0.448,1-1c0-0.552-0.447-1-1-1h-25.028c2.54-2.62,5.623-4.339,9.375-4.939c3.271-0.524,5.5-3.601,4.977-6.873
		c-0.524-3.271-3.592-5.5-6.873-4.977c-9.722,1.556-17.023,7.096-22.099,16.789h-76.061c-5.852-25.804-13.1-47.415-24.871-58
		h140.581c0.553,0,1-0.448,1-1c0-0.552-0.447-1-1-1H203.203c-4.419-3.228-9.438-5-15.203-5c-5.628,0-10.297,1.963-14.18,5H29.758
		c-0.553,0-1,0.448-1,1c0,0.552,0.447,1,1,1h141.764c-9.116,8.822-13.24,23.579-14.964,29.759
		c-2.36,8.461-4.271,17.991-5.942,28.241H29.758c-0.553,0-1,0.448-1,1c0,0.552,0.447,1,1,1h120.536
		c-2.122,13.382-3.862,27.938-5.654,42.958c-0.593,4.97-1.194,10.003-1.817,15.042H127.17c-1.622-2.076-3.204-4.171-4.777-6.259
		c-12.738-16.905-25.91-34.386-58.752-34.386c-1.657,0-3,1.343-3,3c0,1.657,1.343,3,3,3c29.851,0,41.023,14.828,53.96,31.996
		c0.661,0.878,1.329,1.762,2.002,2.648H29.758c-0.553,0-1,0.448-1,1c0,0.552,0.447,1,1,1h91.372
		c5.312,6.908,11.149,13.892,18.778,19.864c-2.01,13.726-4.369,26.85-7.406,38.136H70.258c-2.613-9.209-3.283-16.631-3.303-16.865
		c-0.266-3.301-3.162-5.766-6.459-5.498c-3.303,0.264-5.767,3.156-5.502,6.46c0.033,0.417,0.591,7.06,2.812,15.904H29.758
		C29.205,255.126,28.758,255.574,28.758,256.126z M275.641,268.809c-5.89,0-10.84-4.38-15.101-11.683h29.813
		C287.316,264.645,282.726,268.809,275.641,268.809z M259.432,255.126c-4.07-7.671-7.496-18.041-10.518-29.731
		c16.215-5.545,28.056-13.179,39.1-20.305c2.959-1.909,5.836-3.76,8.706-5.508c-0.024,0.891-0.049,1.781-0.073,2.669
		c-0.625,22.885-1.565,41.271-5.547,52.875H259.432z M242.637,197.126h46.683c-1.517,0.964-3.033,1.938-4.559,2.923
		c-10.568,6.819-21.887,14.122-37.308,19.466C245.734,212.34,244.146,204.781,242.637,197.126z M235.902,222.916
		c-11.332,2.776-24.709,4.494-41.036,4.494c-19.03,0-32.556-3.763-42.949-9.584c0.983-6.794,1.887-13.73,2.75-20.7h75.735
		C232.138,206.067,233.934,214.746,235.902,222.916z M305.588,137.126c-1.702,3.657-3.122,7.844-4.268,12.574
		c-3.009,12.425-3.891,27.546-4.389,42.79c-1.484,0.855-2.957,1.734-4.42,2.637h-50.268c-1.272-6.525-2.492-13.101-3.686-19.549
		c-2.451-13.23-4.87-26.279-7.576-38.451H305.588z M188,82.126c14.367,0,23.313,23.696,30.188,53h-55.377
		C167.775,105.64,174.928,82.126,188,82.126z M156.555,181.506c1.766-14.797,3.606-30.22,5.924-44.38h56.172
		c2.996,13.051,5.604,27.116,8.108,40.637c1.083,5.845,2.159,11.653,3.257,17.363h-75.104
		C155.47,190.583,156.015,186.033,156.555,181.506z M128.754,197.126h13.82c-0.539,4.315-1.098,8.629-1.683,12.906
		C136.311,206.057,132.395,201.661,128.754,197.126z M150.979,224.113c10.873,5.637,24.852,9.297,43.888,9.297
		c16.913,0,30.768-1.774,42.503-4.641c2.556,9.82,5.418,18.761,8.795,26.357H144.893
		C147.302,245.622,149.272,235.123,150.979,224.113z M131.951,257.126c-5.681,20.145-13.676,33.951-25.977,33.951
		c-20.552,0-30.466-18.785-35.123-33.951H131.951z"/>
</g>
<g>
</g>
<g>
</g>
<g>
</g>
<g>
</g>
<g>
</g>
<g>
</g>
<g>
</g>
<g>
</g>
<g>
</g>
<g>
</g>
<g>
</g>
<g>
</g>
<g>
</g>
<g>
</g>
<g>
</g>
</svg>
