<?xml version="1.0" encoding="iso-8859-1"?>
<!-- Generator: Adobe Illustrator 18.1.1, SVG Export Plug-In . SVG Version: 6.00 Build 0)  -->
<svg version="1.1" id="Capa_1" xmlns="http://www.w3.org/2000/svg" xmlns:xlink="http://www.w3.org/1999/xlink" x="0px" y="0px"
	 viewBox="0 0 61.779 61.779" style="enable-background:new 0 0 61.779 61.779;" xml:space="preserve">
<g>
	<path style="fill:#010002;" d="M53.83,18.669c0.627,0.068,1.188-0.382,1.258-1.007l0.585,0.064l1.001,0.163l0.014,0.002
		c0.041,0.582-0.171,1.045-0.171,1.045l0.47-0.389c0,0,1.584-2.382-0.138-3.104l-0.813-0.153l-1.938-0.367
		c0,0-0.935-0.659-1.165-0.5l-0.062,1.384c0,0,2.336-0.092,3.289,0.882c0.191,0.201,0.318,0.414,0.404,0.625l-3.889-0.478
		l-0.062,0.552l0.215,0.023C52.755,18.037,53.207,18.6,53.83,18.669z M16.296,18.125H30.4v0.329H16.296V18.125z M55.289,21.259
		l-1.305-0.189l0.145-0.997l1.305,0.189L55.289,21.259z M6.806,14.083h20.809v0.329H6.806V14.083z M23.349,26.271h2.732v0.328
		h-2.732V26.271z M61.733,29.786c-0.513-2.25-0.289-4.596-1.035-6.814c-0.209-1.144-1.414-1.891-3.104-2.376l-2.951,2.91
		l0.539-1.452l-1.309-0.19l0.033,1.741l-1.791-3.77c-3.062-0.151-6.219-0.009-8.115,0.073v-1.267h-0.377l0.149-0.317l-0.229-0.107
		l-0.193,0.424h-4.72v-0.358h-0.304v0.358h-0.34l0.4,1.494h3.412c-1.28,0.668-1.035,3.04,0.75,3.04c1.758,0,5.931,0,7.688,0
		c0.004,0.057,0.002,0.114,0.006,0.172c0.172,2.088-0.025,5.479-0.166,7.221l2.381,0.418l-0.096,0.562l-2.372-0.416
		c-1.871,4.574-2.603,9.777-2.976,14.672c-0.183,2.408,3.56,2.393,3.739,0c0.271-3.584,0.789-7.319,1.84-10.825
		c0.211,0.062,0.428,0.104,0.652,0.126c0.082,0.006,0.16,0.008,0.233,0.01c0.283,3.697,0.541,7.741,1.04,11.225
		c0.342,2.379,3.944,1.36,3.605-0.994c-0.562-3.897-0.752-8.646-1.096-12.562c-0.008-0.078-0.019-0.154-0.033-0.229
		c0.021-0.061,0.029-0.119,0.045-0.178l-2.188-0.388l0.096-0.562l2.187,0.383c0.055-0.613,0.437-5.013,0.271-8.312
		c0.271,0.397,0.412,1.018,0.562,1.774c0.354,1.771,0.257,3.607,0.656,5.371C59.087,32.665,62.19,31.805,61.733,29.786z
		 M53.989,25.361c0.236,0,0.426,0.19,0.426,0.425c0,0.235-0.188,0.426-0.426,0.426c-0.236,0-0.427-0.191-0.427-0.426
		C53.562,25.551,53.752,25.361,53.989,25.361z M53.814,26.821c0.236,0,0.425,0.19,0.425,0.426c0,0.235-0.188,0.426-0.425,0.426
		c-0.235,0-0.425-0.191-0.425-0.426C53.389,27.011,53.578,26.821,53.814,26.821z M53.698,28.184c0.237,0,0.426,0.19,0.426,0.425
		s-0.188,0.426-0.426,0.426c-0.233,0-0.426-0.19-0.426-0.426C53.272,28.375,53.461,28.184,53.698,28.184z M54.487,31.775
		l-1.707-0.287l0.073-0.435l1.705,0.3L54.487,31.775z M23.349,21.762h9.084v0.329h-9.084V21.762z M5.369,23.814h5.66v0.329h-5.66
		V23.814z M27.818,32.863c-2.103-1.804-5.573-3.499-8.774-4.383c0.486-1.27,0.694-2.614,0.323-3.987
		c-0.544-2.017-2.506-3.117-4.356-3.693c-1.981-0.617-2.822,2.482-0.854,3.095c0.953,0.297,1.911,0.689,2.189,1.726
		c0.198,0.729-0.146,1.581-0.536,2.311c-1.526,0.168-2.749,1.729-2.854,3.2c-0.74,1.17-2.017,1.041-4.325,1.312
		C5.832,32.772,1.999,32.018,0,36.601l3.677,4.813c1.028-2.355,2.648-3.462,5.423-3.785c1.345-0.156,2.911-0.463,4.34-1.269
		c-0.057,0.479-0.185,0.96-0.39,1.437c-0.346,0.803-0.245,1.713,0.577,2.19c0.685,0.399,1.848,0.229,2.195-0.571
		c0.678-1.572,0.963-3.135,0.75-4.684c0.894-0.104,3.693-0.646,5.617,1.695c0.772,2.268,0.836,5.627,0.322,8.082
		c-0.423,2.021,2.669,2.881,3.094,0.854c0.491-2.344,0.794-8.085,1.072-8.258c0.824,1.854,0.997,4.89,0.497,7.114
		c-0.452,2.016,2.642,2.871,3.095,0.853C31.832,38.66,30.528,35.187,27.818,32.863z M10.896,29.339
		c0.657,0.175,1.333-0.215,1.508-0.873c0.176-0.659-0.215-1.335-0.874-1.51l0.061-0.227l-0.581-0.156l-1.041,4.101
		c-0.286-0.186-0.56-0.46-0.747-0.873c-0.611-1.343,0.4-3.667,0.4-3.667l-1.423-0.476c-0.251,0.172,0.047,1.373,0.047,1.373
		l-0.39,2.104l-0.164,0.882c0.053,2.022,3.08,1.354,3.08,1.354l0.578-0.319c0,0-0.374,0.021-0.826-0.116l0.207-0.979L10.896,29.339z
		"/>
</g>
<g>
</g>
<g>
</g>
<g>
</g>
<g>
</g>
<g>
</g>
<g>
</g>
<g>
</g>
<g>
</g>
<g>
</g>
<g>
</g>
<g>
</g>
<g>
</g>
<g>
</g>
<g>
</g>
<g>
</g>
</svg>
