<?xml version="1.0" encoding="iso-8859-1"?>
<!-- Generator: Adobe Illustrator 18.1.1, SVG Export Plug-In . SVG Version: 6.00 Build 0)  -->
<svg version="1.1" id="Capa_1" xmlns="http://www.w3.org/2000/svg" xmlns:xlink="http://www.w3.org/1999/xlink" x="0px" y="0px"
	 viewBox="0 0 612 612" style="enable-background:new 0 0 612 612;" xml:space="preserve">
<g>
	<g>
		<path d="M551.58,208.846l-42.498-46.145V51.735c0-10.461-8.48-18.942-18.942-18.942H62.45c-10.461,0-18.942,8.481-18.942,18.942
			v334.493h47.354V80.148h55.124v195.103c-17.609,5.189-30.467,21.467-30.467,40.758c0,23.469,19.026,42.495,42.495,42.495
			c18.007,0,33.387-11.205,39.576-27.019c6.189,15.814,21.569,27.019,39.576,27.019c17.58,0,32.664-10.676,39.13-25.897
			c6.465,15.22,21.55,25.897,39.13,25.897c23.469,0,42.495-19.026,42.495-42.495c0-18.964-12.424-35.02-29.575-40.489V80.148h69.58
			l63.803,69.279v236.802h47.354V200.845l23.49,25.506c-8.911,15.641-7.173,35.869,5.674,49.818
			c15.899,17.263,42.782,18.37,60.047,2.471c17.263-15.899,18.37-42.783,2.471-60.047C587.917,204.644,567.9,201.25,551.58,208.846z
			 M224.246,275.52c-12.21,3.893-22.015,13.156-26.655,25.012c-4.526-11.565-13.97-20.658-25.763-24.711V80.148h52.419V275.52z
			 M302.505,275.52c-11.824,3.77-21.402,12.57-26.21,23.89c-4.808-11.32-14.386-20.12-26.209-23.89V80.148h52.419V275.52
			L302.505,275.52z M461.728,111.283l-28.674-31.135h28.674V111.283z"/>
		<path d="M533.649,405.17h-24.566h-47.354H90.862H43.508H18.942C8.48,405.17,0,413.651,0,424.112v93.649
			c0,10.461,8.48,18.942,18.942,18.942h22.692v9.471v9.471v4.621c0,10.461,8.48,18.942,18.942,18.942h16.161
			c10.462,0,18.942-8.481,18.942-18.942v-4.621v-9.471v-9.471h362.913v9.471v9.471v4.621c0,10.461,8.48,18.942,18.942,18.942h16.161
			c10.461,0,18.942-8.481,18.942-18.942v-4.621v-9.471v-9.471h21.012c10.462,0,18.942-8.481,18.942-18.942v-93.649
			C552.591,413.651,544.11,405.17,533.649,405.17z"/>
	</g>
</g>
<g>
</g>
<g>
</g>
<g>
</g>
<g>
</g>
<g>
</g>
<g>
</g>
<g>
</g>
<g>
</g>
<g>
</g>
<g>
</g>
<g>
</g>
<g>
</g>
<g>
</g>
<g>
</g>
<g>
</g>
</svg>
