<?xml version="1.0" encoding="iso-8859-1"?>
<!-- Generator: Adobe Illustrator 18.1.1, SVG Export Plug-In . SVG Version: 6.00 Build 0)  -->
<svg version="1.1" id="Capa_1" xmlns="http://www.w3.org/2000/svg" xmlns:xlink="http://www.w3.org/1999/xlink" x="0px" y="0px"
	 width="79.9967px" height="79.9967px" viewBox="0 0 612 612" style="enable-background:new 0 0 612 612;" xml:space="preserve">
<g id="Processor">
	<rect x="568.286" y="156.122" width="43.714" height="14.988"/>
	<rect x="298.506" y="568.286" width="14.988" height="43.714"/>
	<rect x="227.314" y="568.286" width="14.988" height="43.714"/>
	<rect x="369.698" y="568.286" width="14.988" height="43.714"/>
	<rect x="440.89" y="568.286" width="14.988" height="43.714"/>
	<rect x="440.89" y="0" width="14.988" height="43.714"/>
	<rect x="369.698" y="0" width="14.988" height="43.714"/>
	<rect x="227.314" y="0" width="14.988" height="43.714"/>
	<rect x="298.506" y="0" width="14.988" height="43.714"/>
	<rect x="156.122" y="0" width="14.988" height="43.714"/>
	<rect y="156.122" width="43.714" height="14.988"/>
	<rect y="298.506" width="43.714" height="14.988"/>
	<path d="M156.122,56.204l-99.918,99.918v299.755l99.918,99.918h299.755l99.918-99.918V156.122l-99.918-99.918H156.122z
		 M543.306,450.704l-92.602,92.602H161.296l-92.602-92.602V161.296l92.602-92.602h289.409l92.602,92.602V450.704z"/>
	<polygon points="171.642,93.673 93.673,171.642 93.673,440.358 171.642,518.327 440.358,518.327 518.327,440.358 518.327,171.642
		440.358,93.673 		"/>
	<rect y="227.314" width="43.714" height="14.988"/>
	<rect y="369.698" width="43.714" height="14.988"/>
	<rect y="440.89" width="43.714" height="14.988"/>
	<rect x="568.286" y="440.89" width="43.714" height="14.988"/>
	<rect x="568.286" y="369.698" width="43.714" height="14.988"/>
	<rect x="568.286" y="227.314" width="43.714" height="14.988"/>
	<rect x="568.286" y="298.506" width="43.714" height="14.988"/>
	<rect x="156.122" y="568.286" width="14.988" height="43.714"/>
</g>
</svg>
