<?xml version="1.0" encoding="iso-8859-1"?>
<!-- Generator: Adobe Illustrator 16.0.0, SVG Export Plug-In . SVG Version: 6.00 Build 0)  -->
<!DOCTYPE svg PUBLIC "-//W3C//DTD SVG 1.1//EN" "http://www.w3.org/Graphics/SVG/1.1/DTD/svg11.dtd">
<svg version="1.1" id="Capa_1" xmlns="http://www.w3.org/2000/svg" xmlns:xlink="http://www.w3.org/1999/xlink" x="0px" y="0px"
	 width="79.9967px" height="79.9967px" viewBox="0 0 572.915 572.915" style="enable-background:new 0 0 572.915 572.915;"
	 xml:space="preserve">
<g>
	<path d="M529.31,176.276c-6.761-19.718-31.556-32.685-86.205-37.188c-29.052-2.4-46.8,9.056-50.71,22.262l-12.757-7.449
		c-10.309-7.172-248.127-58.198-248.127,141.267c0,0-81.138,18.646-100.292-8.702c0,0-14.649-12.087-28.171,0
		c-13.521,12.086,20.282,36.882,55.223,44.761c34.932,7.89,101.42,5.633,108.181,4.504c6.761-1.128,14.172,18.331,7.889,33.804
		c-4.59,11.293,43.949,56.342,69.873,58.599c25.914,2.257,59.728,7.89,60.1-32.685c0.373-40.563-88.653,8.263-57.097-49.581
		c31.556-57.844,35.027-47.383,36.815-46.952c0,0,28.544,30.055,39.062,34.559c0,0-13.521,100.674,21.037,100.674
		c34.56,0,22.539-108.18,22.539-115.696c0,0,58.408-50.336,62.921-62.166c0,0,93.531,23.667,114.941,20.282
		c21.411-3.385,29.864-36.625,28.171-42.257C571.012,228.678,536.071,196.003,529.31,176.276z"/>
	<path d="M66.151,431.365h108.181c0,0,8.874-24.308-13.436-25.896c0,0-0.793-24.699-18.332-22.711c0,0-14.066-32.148-37.351-6.607
		c0,0,12.02-1.042,11.265,4.963c0,0-25.312-1.539-20.531,22.367C95.948,403.471,63.895,402.677,66.151,431.365z"/>
</g>
</svg>
