<?xml version="1.0" encoding="iso-8859-1"?>
<!-- Generator: Adobe Illustrator 16.0.0, SVG Export Plug-In . SVG Version: 6.00 Build 0)  -->
<!DOCTYPE svg PUBLIC "-//W3C//DTD SVG 1.1//EN" "http://www.w3.org/Graphics/SVG/1.1/DTD/svg11.dtd">
<svg version="1.1" id="Capa_1" xmlns="http://www.w3.org/2000/svg" xmlns:xlink="http://www.w3.org/1999/xlink" x="0px" y="0px"
	 width="122.716px" height="122.716px" viewBox="0 0 122.716 122.716" style="enable-background:new 0 0 122.716 122.716;"
	 xml:space="preserve">
<g>
	<g>
		<polygon points="44.343,76.588 44.343,120.988 48.586,120.988 52.065,87.62 70.318,87.62 74.139,120.988 78.382,120.988 
			78.382,76.639 78.287,76.588 		"/>
		<circle cx="61.704" cy="7.818" r="7.818"/>
		<path d="M52.208,44.383c0.49,0,0.987-0.117,1.448-0.369c0.161-0.087,0.308-0.19,0.446-0.3l0.002,28.254
			c0,1.981,1.607,3.587,3.587,3.587c1.981,0,3.588-1.605,3.587-3.587l-0.002-24.944c0.142,0.008,0.284,0.02,0.427,0.02
			c0.028,0,0.056-0.005,0.084-0.005l-0.001,24.93c0,1.98,1.606,3.588,3.587,3.588c1.981,0,3.587-1.605,3.587-3.588l0.001-28.564
			c0.22,0.237,0.48,0.447,0.781,0.61c0.461,0.252,0.958,0.369,1.448,0.369c1.076,0,2.118-0.574,2.668-1.586
			c8.562-15.739-3.117-22.903-6.956-25.258c-0.131-0.08-0.27-0.139-0.406-0.195c-0.871-0.582-1.849-1.009-2.847-1.253l-1.947,1.959
			l-1.889-1.982c-0.006,0.003-0.012,0.003-0.019,0.004c-1.018,0.243-2.016,0.679-2.9,1.273c-0.136,0.058-0.271,0.114-0.401,0.194
			c-3.838,2.354-15.519,9.519-6.956,25.258C50.089,43.809,51.13,44.383,52.208,44.383z M69.705,28.108
			c1.321,2.304,1.646,5.263,0,9.315V28.108z M61.686,18.342h0.036l1.885,12.604l-1.885,2.578h-0.036l-1.886-2.578L61.686,18.342z
			 M53.701,28.092v9.352C52.043,33.373,52.371,30.403,53.701,28.092z"/>
		<path d="M95.565,69.779c-0.092-0.059-0.19-0.094-0.286-0.137c-0.781-0.514-1.655-0.892-2.544-1.111l-1.774,1.789l-1.721-1.807
			c-0.006,0.002-0.012,0.002-0.019,0.004c-0.854,0.205-1.69,0.557-2.447,1.033c-0.188,0.059-0.375,0.133-0.556,0.232
			c-1.103,0.621-2.151,0.742-3.301,0.384c-3.803-1.187-7.346-6.987-8.389-9.121c-0.667-1.374-2.321-1.946-3.696-1.28
			c-1.374,0.666-1.946,2.322-1.28,3.697c0.488,1.002,4.96,9.868,11.706,11.979c0.802,0.252,1.606,0.393,2.409,0.434v14.574
			c0,0.752,0.148,1.453,0.407,2.099c-0.019,0.138-0.042,0.276-0.042,0.418l0.027,26.483c0.001,1.803,1.465,3.266,3.268,3.266
			c0,0,0.002,0,0.003,0c1.805-0.002,3.268-1.466,3.265-3.273l-0.022-22.723c0.128,0.006,0.256,0.016,0.386,0.016
			c0.026,0,0.053-0.002,0.08-0.002l0.021,22.717c0.002,1.804,1.465,3.267,3.269,3.267c0.001,0,0.002,0,0.003,0
			c1.805-0.002,3.269-1.466,3.267-3.271l-0.024-25.979c0.172,0.163,0.359,0.312,0.578,0.434c0.419,0.229,0.872,0.338,1.317,0.338
			c0.981,0,1.932-0.523,2.433-1.446C109.705,78.451,99.062,71.924,95.565,69.779z M90.979,84.418h-0.034l-1.718-2.352l1.718-11.481
			h0.034l1.717,11.481L90.979,84.418z M98.252,87.555v-7.908C99.308,81.645,99.544,84.172,98.252,87.555z"/>
		<circle cx="90.96" cy="60.997" r="7.123"/>
		<path d="M53.163,63.463c0.667-1.375,0.094-3.031-1.28-3.697c-1.375-0.666-3.029-0.094-3.696,1.28
			c-1.043,2.134-4.586,7.935-8.389,9.121c-1.149,0.358-2.198,0.237-3.301-0.384c-0.179-0.102-0.366-0.176-0.555-0.232
			c-0.757-0.477-1.595-0.828-2.448-1.033c-0.006-0.002-0.012-0.002-0.018-0.004l-1.721,1.807l-1.774-1.789
			c-0.89,0.221-1.764,0.599-2.544,1.111c-0.096,0.043-0.193,0.078-0.286,0.137c-3.497,2.146-14.14,8.672-6.337,23.013
			c0.501,0.923,1.451,1.446,2.432,1.446c0.447,0,0.899-0.108,1.319-0.338c0.219-0.119,0.406-0.271,0.578-0.434l-0.024,25.977
			c-0.001,1.806,1.461,3.27,3.266,3.271c0.001,0,0.002,0,0.003,0c1.804,0,3.267-1.463,3.269-3.266l0.021-22.719
			c0.026,0,0.053,0.004,0.08,0.004c0.129,0,0.258-0.01,0.386-0.017l-0.023,22.724c-0.002,1.808,1.459,3.271,3.265,3.272
			c0.001,0,0.003,0,0.003,0c1.804,0,3.267-1.463,3.269-3.267l0.027-26.482c0-0.141-0.023-0.279-0.042-0.418
			c0.259-0.646,0.407-1.346,0.407-2.1V75.875c0.803-0.041,1.608-0.182,2.409-0.434C48.203,73.332,52.674,64.465,53.163,63.463z
			 M24.464,87.555c-1.292-3.383-1.056-5.91,0-7.908V87.555z M31.772,84.418h-0.034l-1.717-2.352l1.717-11.481h0.034l1.718,11.481
			L31.772,84.418z"/>
		<circle cx="31.756" cy="60.997" r="7.123"/>
	</g>
</g>
<g>
</g>
<g>
</g>
<g>
</g>
<g>
</g>
<g>
</g>
<g>
</g>
<g>
</g>
<g>
</g>
<g>
</g>
<g>
</g>
<g>
</g>
<g>
</g>
<g>
</g>
<g>
</g>
<g>
</g>
</svg>
