<?xml version="1.0" encoding="UTF-8" standalone="no"?>
<!-- Generator: Adobe Illustrator 18.1.1, SVG Export Plug-In . SVG Version: 6.00 Build 0)  -->

<svg
   xmlns:dc="http://purl.org/dc/elements/1.1/"
   xmlns:cc="http://creativecommons.org/ns#"
   xmlns:rdf="http://www.w3.org/1999/02/22-rdf-syntax-ns#"
   xmlns:svg="http://www.w3.org/2000/svg"
   xmlns="http://www.w3.org/2000/svg"
   xmlns:sodipodi="http://sodipodi.sourceforge.net/DTD/sodipodi-0.dtd"
   xmlns:inkscape="http://www.inkscape.org/namespaces/inkscape"
   version="1.1"
   id="Capa_1"
   x="0px"
   y="0px"
	 width="80px"
	 height="80px"
   viewBox="0 0 280 280"
   style="enable-background:new 0 0 280 280;"
   xml:space="preserve"
   inkscape:version="0.91 r13725"
   sodipodi:docname="termisk_logo.svg"><metadata
     id="metadata15"><rdf:RDF><cc:Work
         rdf:about=""><dc:format>image/svg+xml</dc:format><dc:type
           rdf:resource="http://purl.org/dc/dcmitype/StillImage" /></cc:Work></rdf:RDF></metadata><defs
     id="defs13" /><sodipodi:namedview
     pagecolor="#ffffff"
     bordercolor="#666666"
     borderopacity="1"
     objecttolerance="10"
     gridtolerance="10"
     guidetolerance="10"
     inkscape:pageopacity="0"
     inkscape:pageshadow="2"
     inkscape:window-width="1440"
     inkscape:window-height="851"
     id="namedview11"
     showgrid="false"
     inkscape:zoom="0.84285714"
     inkscape:cx="-91.751864"
     inkscape:cy="99.73066"
     inkscape:window-x="1"
     inkscape:window-y="1"
     inkscape:window-maximized="0"
     inkscape:current-layer="g3" /><g
     id="g3"><path
       d="M79.59,47.706h109.263c0.653,0,1.26-0.321,1.63-0.858c0.369-0.533,0.45-1.217,0.217-1.826   c-7.187-18.799-15.338-33.707-24.226-44.314C166.1,0.26,165.544,0,164.959,0h-61.475c-0.584,0-1.138,0.26-1.515,0.707   c-8.888,10.608-17.038,25.516-24.226,44.314c-0.232,0.609-0.151,1.293,0.218,1.826C78.33,47.385,78.941,47.706,79.59,47.706z"
       id="path5" /><path
       d="m 191.43555,61.810547 -157.402347,0.04687 c -0.854,0 -1.613953,0.549328 -1.876953,1.361328 -2.555,7.806 5.566016,15.122186 14.166016,22.867188 8.093,7.287998 16.45814,14.824902 14.99414,22.003902 -7.954,39.002 -12.15625,83.88297 -12.15625,129.79297 0,1.092 0.884563,1.9765 1.976563,1.97657 l 166.169921,0 c 1.092,0 1.97656,-0.88457 1.97656,-1.97657 0,-21.546 -0.91659,-42.69469 -2.68359,-63.05469 29.099,-46.42799 37.67706,-75.463276 27.78906,-93.613276 -9.315,-17.099 -31.99512,-19.404297 -52.95312,-19.404297 z M 200.75,81.005859 c 11.414,0.583 23.34775,2.641063 26.96875,9.289063 2.891,5.306 3.88586,18.902578 -14.61914,53.017578 -3.052,-22.306 -7.19661,-43.27564 -12.34961,-62.306641 z"
       id="path7"
       inkscape:connector-curvature="0"
       sodipodi:nodetypes="ccccsscssccccccc" /><path
       d="M217.686,249.547H50.759c-1.089,0-1.976,0.887-1.976,1.98v26.496c0,1.09,0.887,1.977,1.976,1.977h166.927   c1.091,0,1.978-0.887,1.978-1.977v-26.496C219.664,250.434,218.777,249.547,217.686,249.547z"
       id="path9" /></g></svg>
