<?xml version="1.0" encoding="iso-8859-1"?>
<!-- Generator: Adobe Illustrator 18.1.1, SVG Export Plug-In . SVG Version: 6.00 Build 0)  -->
<svg version="1.1" id="Capa_1" xmlns="http://www.w3.org/2000/svg" xmlns:xlink="http://www.w3.org/1999/xlink" x="0px" y="0px"
	 viewBox="0 0 106.023 106.023" style="enable-background:new 0 0 106.023 106.023;" xml:space="preserve">
<g>
    <path style="fill:#010002;" d="M36.831,89.465c-4.73,0-8.099,3.363-8.099,8.281c0,4.729,3.277,8.277,8.099,8.277
        c5.003,0,8.188-3.549,8.188-8.277C44.931,92.83,41.747,89.465,36.831,89.465z"/>
    <path style="fill:#010002;" d="M43.138,44.532c-2.851-1.152-7.59-7.432-10.66-13.039c-5.403,0.767-9.904,2.468-13.027,4.238
        l3.863,12.377c2.952-2.041,7.491-3.406,11.237-3.406c5.676,0.107,8.289,2.834,8.289,6.811c0,3.744-2.953,7.494-6.582,11.919
        c-5.113,6.017-7.039,11.923-6.703,17.703l0.117,2.957h15.094v-2.043c-0.109-5.104,1.707-9.535,5.793-14.184
        c4.315-4.773,9.765-10.445,9.765-19.076c0-1.709-0.238-3.373-0.69-4.962C53.081,45.046,45.698,45.564,43.138,44.532z"/>
    <path style="fill:#010002;" d="M38.357,12.396c0,0-5.48,8.458-5.834,9.041c-1.88,3.092,7.145,18.056,11.424,19.956
        c4.294,1.912,24.097-0.551,25.462-3.612c0.149-0.328,0.19-0.698,0.44-1.746l2.183-8.646L50.51,29.961L38.357,12.396z"/>
    <polygon style="fill:#010002;" points="85.503,23.2 63.032,3.316 33.116,0 52.197,27.473 		"/>
    <polygon style="fill:#010002;" points="84.49,24.485 83.269,43.512 84.952,49.167 86.572,43.505 		"/>
</g>
</svg>
